<?xml version="1.0" encoding="utf-8" ?><svg xmlns="http://www.w3.org/2000/svg" xmlns:xlink="http://www.w3.org/1999/xlink" width="1024" height="1024" viewBox="0 0 1024 1024"><path fill="#252223" d="M365.339 106.205C374.115 105.53 384.724 106.438 393.574 107.267C427.604 110.358 460.329 116.993 491.336 131.731C503.273 137.406 536.05 155.469 504.819 162.621C499.587 163.96 489.196 164.162 483.639 164.104C444.164 163.672 405.954 149.992 371.529 131.45C365.274 128.081 354.083 121.46 351.943 114.05C350.081 107.6 361.075 106.68 365.339 106.205ZM494.879 153.924C497.95 154.188 504.961 155.17 507.35 153.86C507.981 148.979 495.657 143.444 491.491 141.253C461.226 125.087 427.964 115.306 393.766 112.514C388.629 112.07 382.924 112.038 377.754 112.229C374.989 112.322 364.439 112.104 364.742 116.135C367.176 118.907 374.355 121.948 377.916 123.532C413.207 139.229 456.774 149.124 494.879 153.924ZM500.756 158.888L501.055 158.525C497.541 156.924 484.868 155.782 480.491 155.048C448.919 149.755 417.182 143.834 387.271 132.075C383.941 130.768 379.518 128.472 376.267 127.532C380.099 130.639 389.376 134.98 394.123 137.479C423.299 152.839 461.205 163.346 494.475 159.898C496.585 159.669 498.681 159.332 500.756 158.888ZM512.255 155.096C514.265 150.23 509.601 146.026 505.319 144.816C508.95 147.995 512.409 149.616 511.224 154.647L512.255 155.096Z"/><path fill="#F6F2F4" fill-opacity="0.019607844" d="M505.319 144.816C509.601 146.026 514.265 150.23 512.255 155.096L511.224 154.647C512.409 149.616 508.95 147.995 505.319 144.816Z"/><path fill="#252223" d="M651.845 109.707C652 109.679 652.154 109.641 652.311 109.624C659.294 108.859 674.204 108.13 679.783 112.675C681.036 113.695 681.883 115.122 682.011 116.747C682.258 119.889 679.808 122.842 677.868 125.068C655.89 150.292 584.64 166.668 551.573 168.943C548.546 169.188 545.189 169.168 541.907 168.996C535.067 168.603 522.364 168.769 520.993 159.885C520.559 157.072 526.995 152.233 529.237 150.646C561.154 128.042 614.191 113.409 651.845 109.707ZM546.184 161.02C588.167 161.252 628.114 150.06 665.289 130.188C667.805 128.843 671.341 125.846 672.486 123.244C671.972 119.977 667.323 120.69 664.595 120.722C655.35 121.331 647.655 121.914 638.521 123.444C615.529 127.506 592.976 133.753 571.17 142.098C557.57 147.164 547.751 150.682 536.685 160.35C540.143 160.727 542.7 161.024 546.184 161.02ZM564.814 137.406C571.702 135.098 573.343 137.522 577.689 136.203C608.461 126.862 640.546 116.454 673.059 117.125C675.261 117.171 676.713 119.339 678.537 118.166C678.472 116.915 678.586 116.46 677.379 115.431C674.469 112.949 658.037 113.2 654.797 113.71C623.31 116.278 592.394 123.605 563.103 135.44C558.857 137.134 548.561 141.52 545.379 144.063C545.623 143.842 545.866 143.62 546.109 143.398L546.754 143.786C551.791 141.968 559.902 138.766 564.814 137.406Z"/><path fill="#252223" d="M738.354 286.602C725.726 236.816 708.005 189.099 691.428 140.543C690.59 138.089 688.379 130.955 689.889 128.803C690.462 128.729 692.141 128.431 692.443 129.305C717.408 201.531 742.277 274.452 753.692 350.411C757.465 375.516 763.403 412.956 759.628 438.168C759.183 443.764 758.598 449.348 757.874 454.915C754.818 482.827 747.075 518.162 729.74 540.529C727.7 543.161 725.697 545.443 725.041 548.81C723.741 555.478 722.712 569.084 722.249 575.454C720.129 602.775 720.566 630.234 723.553 657.473C725.057 672.186 728.071 686.916 730.987 701.482C735.914 726.104 741.786 750.325 750.804 773.884C759.535 796.784 772.944 822.768 796.836 832.638C803.709 835.478 816.696 836.822 824.466 837.524C852.94 840.097 907.543 855.8 862.577 889.092C859.124 891.612 855.613 894.052 852.047 896.41C858.732 896.579 865.77 897.773 872.449 898.595C918.154 904.223 963.235 915.581 1009.14 919.205C1013.44 919.544 1018.25 918.063 1022.29 919.968L1022.87 920.959L1022.47 921.713C1005.05 926.003 926.7 910.554 904.529 907.369C886.604 904.794 865.182 900.897 845.959 899.259C837.154 904.742 818.495 911.654 808.676 914.759C773.838 925.873 738.432 933.256 701.717 929.967C692.221 929.116 682.007 928.793 672.72 926.574C665.562 924.864 659.386 922.836 659.819 914.537C656.544 914.595 644.206 917.837 640.093 918.823C632.146 920.768 624.149 922.503 616.111 924.027C588.353 929.511 560.264 933.158 532.027 934.946C491.262 937.719 435.789 934.633 395.512 926.282C383.624 923.762 371.784 921.022 359.998 918.063C350.199 915.509 344.965 912.607 334.513 913.167C308.121 914.583 280.953 911.356 256.018 902.39C241.38 897.12 226.096 891.499 213.911 881.594C210.751 879.026 210.419 876.696 212.139 873.264C203.166 873.624 164.072 894.774 151.529 899.306C104.844 916.173 49.9756 933.589 0 933.689L0 930.887C4.09819 930.267 11.951 929.966 16.4993 929.588C23.3884 928.962 30.2525 928.086 37.0781 926.962C85.0631 919.613 131.694 905.193 175.451 884.172C183.895 880.12 210.086 866.5 220.589 867.689C221.201 867.758 221.472 869.265 221.69 870.024L221.863 870.645C223.869 870.795 225.3 869.685 227.026 869.586C245.847 868.511 264.003 879.908 280.335 886.918C294.489 892.906 308.852 898.386 323.397 903.349C329.598 905.483 336.533 908.562 343.078 909.292C350.581 910.128 369.052 904.768 374.706 899.699C376.203 898.358 377.424 896.459 377.271 894.366C376.595 885.113 333.829 865.404 325.686 860.776C320.338 857.737 315.22 854.428 310.612 850.334C293.468 835.099 288.896 812.653 290.343 790.517C290.802 783.502 292.637 775.705 292.237 768.779C281.834 800.209 277.008 820.445 250.944 844.633C268.388 843.799 285.816 846.578 302.136 852.794C305.951 854.255 313.67 857.16 315.378 861.01C314.667 866.6 305.388 863.664 301.754 862.803C284.036 858.606 265.371 850.595 247.586 847.39C230.079 860.89 210.672 863.206 188.953 861.869C180.907 861.373 161.996 859.943 156.475 853.381C148.922 844.402 168.332 840.537 173.525 839.646C196.977 834.695 223.457 837.016 246.402 843.682C251.969 839.582 256.401 834.784 260.732 829.404C267.717 820.629 273.407 810.898 277.629 800.507C283.876 785.553 288.295 766.782 292.245 750.958C303.482 706.223 311.106 660.534 311.426 614.332C311.622 585.94 305.044 559.363 303.885 531.288C303.612 524.666 304.436 520.234 312.361 521.356C312.582 521.921 302.053 510.358 300.642 508.159C268.532 458.11 276.65 388.417 284.381 332.403C285.223 326.31 286.908 318.605 289.638 313.037C298.956 298.012 301.399 280.069 306.301 262.751C314.813 233.308 323.798 204.002 333.252 174.847C335.152 168.95 346.17 132.984 349.291 130.751L350.252 130.958C351.653 135.485 339.766 165.534 337.551 172.779C324.622 215.077 310.523 256.537 300.041 299.611C303.113 302.154 304.499 304.209 305.027 308.27C306.471 320.506 305.279 333.251 304.34 345.529C300.415 396.81 299.549 449.782 325.791 496.069C327.747 496.018 329.704 495.999 331.661 496.011C347.347 496.203 363.938 505.724 374.491 516.882C377.555 520.122 379.425 524.513 382.871 527.806C384.026 526.996 385.161 526.157 386.274 525.289C423.557 496.399 447.45 442.452 464.633 399.974C471.79 382.281 480.533 359.106 484.667 340.465C487.541 327.507 489.351 309.365 491.014 295.851L500.576 216.934C501.858 207.096 506.125 176.349 513.805 168.634C514.527 167.908 516.235 168.049 517.276 168.203C518.37 169.108 518.739 169.779 519.114 171.163C523.987 189.126 504.011 283.906 498.161 308.34C495.264 320.44 491.17 332.307 488.584 344.465C486.194 355.703 484.7 367.16 482.635 378.464C479.428 396.022 475.323 413.925 470.156 431.005C463.657 452.449 454.917 473.148 444.081 492.761C435.796 507.524 419.643 530.858 402.424 535.8C395.044 537.918 389.205 535.781 382.986 532.05C374.048 536.209 369.26 539.805 359.63 538.743C349.167 536.421 340.648 533.702 330.893 529.266C327.806 527.862 322.67 524.136 320.08 523.582L319.888 523.92C331.37 531.875 345.927 537.95 359.609 540.899C363.702 542.661 368.479 542.911 372.446 545.096C374.255 546.092 375.988 547.514 376.456 549.619C377.446 554.072 364.234 569.019 361.072 573.644C349.319 590.83 340.525 609.304 332.577 628.5C314.343 672.54 305.44 710.191 298.426 757.227C295.486 776.943 291.82 797.168 295.641 817.022C303.149 856.034 343.719 863.11 372.139 882.421C375.67 884.82 380.29 888.361 380.981 892.833C381.403 895.564 380.222 898.145 378.547 900.233C372.609 907.638 360.127 910.911 351.162 912.091C437.536 937.253 527.402 938.285 615.18 920.59C630.789 917.443 646.847 914.511 662.145 910.138C673.353 897.822 686.24 895.031 702.415 893.944C704.89 893.778 708.776 895.114 710.987 894.751C720.812 893.133 730.579 891.056 740.542 890.417C776.341 888.155 810.658 891.297 846.1 894.988C855.497 890.539 867.755 881.823 873.372 872.882C879.012 863.904 872.326 856.855 864.706 852.521C846.321 842.065 825.715 841.38 805.355 838.765C800.868 838.189 794.033 834.693 789.968 832.638C758.317 814.935 745.502 772.501 736.206 739.845C736.394 742.408 736.821 745.088 737.159 747.644C740.515 773.001 744.104 799.011 738.956 824.395C736.736 835.338 733.414 849.7 724.81 857.565C733.31 855.444 741.664 853.39 750.225 850.985C759.382 848.414 769.414 844.304 778.766 842.691C780.33 842.422 781.649 842.892 782.838 843.92C786.785 855.623 729.66 873.051 720.002 876.75C704.723 882.6 688.541 888.04 672.751 892.34C666.967 893.915 650.821 896.663 654.845 885.564C659.504 878.198 670.348 876.415 677.281 872.789C695.501 863.259 723.002 864.675 730.666 842.198C738.757 818.467 739.129 795.494 736.277 771.253C732.031 735.158 725.623 698.577 713.728 664.31C707.622 646.562 699.84 629.436 690.487 613.164C681.985 598.402 671.401 584.803 660.875 571.449C653.266 561.795 647.484 556.887 652.571 544.252C644.738 534.112 632.715 526.859 622.957 517.623C594.335 490.532 576.335 457.78 564.364 420.502C559.532 405.233 555.96 389.593 553.685 373.739C552.561 366.405 552.112 358.869 550.647 351.603C548.01 338.52 543.421 325.824 540.777 312.671C537.369 295.718 520.049 182.583 525.319 174.728C526.156 173.481 527.236 172.815 528.678 172.519C529.777 172.293 531.346 172.428 532.213 173.189C538.913 179.079 544.499 243.785 545.901 256.325C547.715 272.554 549.89 288.739 551.274 305.015C552.452 318.857 552.377 334.239 554.314 347.759C555.278 354.491 558.13 361.234 560.417 367.605C570.583 395.92 583.058 422.795 596.539 449.646C608.86 474.184 621.981 499.057 638.37 521.136C642.148 526.226 645.92 532.028 651.033 535.852C651.196 535.973 651.361 536.091 651.525 536.211C662.017 521.371 686.567 504.085 705.927 511.945C708.226 512.878 710.998 515.142 713.008 516.676C717.81 509.152 723.444 495.601 726.478 487.104C746.067 432.601 736.628 374.847 729.087 319.104C728.068 311.571 721.342 271.186 725.074 266.934C729.73 264.901 735.137 283.773 736.456 287.58C738.288 291.677 740.373 299.374 741.892 304.023C742.427 304.511 742.234 304.196 742.379 305.018C741.464 300.097 739.744 291.209 738.354 286.602ZM758.586 431.964C758.508 420.194 758.34 405.896 756.713 394.11C756.289 398.997 756.753 415.035 756.954 420.107C757.204 426.372 755.443 450.704 756.192 454.474C757.409 446.803 758.285 439.744 758.586 431.964ZM658.901 545.58L669.938 553.964C691.983 566.533 703.718 561.733 720.905 545.506C721.396 538.137 721.533 527.506 714.392 522.805C698.537 546.116 688.701 561.595 658.901 545.58ZM726.862 538.741C730.658 532.749 735.333 525.409 738.026 518.785C762.321 459.043 755.572 384.13 742.954 322.432C741.249 314.095 732.385 280.377 727.498 276.298C728.307 293.158 731.523 312.849 733.746 329.899C742.653 398.232 749.755 456.386 716.743 519.471C720.74 523.774 723.031 527.28 724.499 533.232C724.979 535.182 724.899 540.508 725.391 541.248L726.862 538.741ZM299.489 304.248C294.227 314.788 293.516 322.835 290.326 333.572C283.891 355.225 281.143 373.328 280.707 395.927C280.178 423.347 280.931 450.7 289.759 477.062C292.378 485.095 298.812 500.602 304.566 506.586L304.91 506.58C309.353 500.289 315.206 498.369 322.28 496.278C297.921 452.035 297.442 404.508 300.502 355.251C301.135 345.062 305.276 311.413 299.489 304.248ZM776.56 847.106C765.619 849.638 754.728 854.063 744.013 856.56C717.782 862.673 692.051 869.047 667.539 880.639C663.735 882.438 654.758 886.14 659.245 890.897C664.167 891.217 668.731 890.241 673.497 889.072C691.656 884.62 763.246 859.746 775.815 849.26C776.532 848.662 777.037 848.186 777.39 847.309L776.56 847.106ZM493.403 310.923C502.877 277.324 509.272 242.932 512.509 208.173C513.235 200.679 513.527 192.745 513.975 185.205C514.202 181.379 516.337 175.457 516.058 173.181L515.576 172.857C504.712 189.072 496.087 286.341 493.112 310.499L493.403 310.923ZM370.106 532.431C371.813 531.724 374.045 530.883 375.614 529.988C376.251 529.217 376.78 528.945 376.638 528.187C375.603 522.69 365.614 515.042 361.492 512.015C353.002 505.78 345.824 502.102 335.455 500.371C333 499.962 330.371 500.048 328.307 499.73C328.92 502.109 333.514 507.564 335.305 509.49C344.5 519.378 356.859 528.976 370.106 532.431ZM671.411 533.876C682.299 531.328 696.717 531.416 705.543 527.211C707.158 524.836 708.857 522.225 710.524 519.913C704.441 515.327 698.357 513.092 690.622 514.104C676.66 516.689 665.292 525.019 656.694 536.477C656.433 536.824 656.255 537.243 656.07 537.64L656.46 538.762L657.491 539.213C662.465 536.852 665.936 534.842 671.411 533.876ZM529.987 177.771C527.922 187.814 530.378 210.559 531.324 220.877C534.718 257.892 540.212 299.019 549.855 335.022C551.692 327.789 543.526 264.941 542.308 254.904C540.381 239.023 536.575 189.857 529.987 177.771ZM364.558 534.804C352.911 529.527 343.669 523.198 334.688 513.944C332.936 512.138 324.394 500.722 323.657 500.51C309.235 505.388 303.894 509.583 319.266 519.253C330.574 526.367 339.388 530.28 352.377 533.262C357.491 534.401 359.39 534.44 364.558 534.804ZM668.334 908.507C670.425 908.029 672.57 907.584 674.619 906.964C685.275 903.891 696.723 902.203 706.219 897.522L699.349 897.723C685.654 899.032 679.148 899.622 668.334 908.507ZM840.775 898.17C810.442 894.402 783.719 892.441 753.081 893.21C740.073 893.822 727.479 895.19 714.663 897.72C712.353 898.176 706.578 901.332 703.786 902.359C697.627 904.622 669.214 910.983 665.668 913.794C665.05 914.976 664.516 915.981 664.789 917.383C665.213 919.557 667.523 921.052 669.366 921.949C683.093 928.631 735.224 927.605 751.885 925.109C774.663 921.427 820.677 909.572 840.775 898.17ZM290.651 319.841C289.771 322.908 286.729 332.938 287.256 335.649C288.167 332.456 291.273 322.403 290.651 319.841ZM373.618 550.76C367.457 545.598 351.378 541.617 343.02 538.964C333.522 535.948 317.658 525.818 308.983 524.784C305.061 533.718 309.737 556.949 311.134 567.525C312.944 581.44 314.053 595.438 314.459 609.464C314.898 629.964 313.758 651.155 310.807 671.42C310.395 674.244 309.827 677.259 309.736 680.101C314.216 664.566 319.466 651.968 325.366 636.872C337.208 608.452 349.373 579.804 369.601 556.263C371.091 554.529 372.473 552.743 373.618 550.76ZM265.445 848.057C270.301 850.32 304.257 859.881 310.17 860.98C300.688 854.374 276.673 848.013 265.445 848.057ZM723.483 680.686C723.06 677.555 721.935 668.427 721.199 665.881C716.045 624.006 716.965 592.435 720.849 550.965C709.778 559.218 700.417 566.087 685.363 564.032C674.933 562.608 662.654 554.413 655.004 547.433C651.107 558.319 666.116 572.811 672.814 581.229C677.404 587.052 681.774 593.045 685.915 599.195C694.493 611.878 701.9 625.85 708.352 639.718C714.459 652.843 718.357 667.187 723.483 680.686ZM664.993 544.188C683.236 551.247 693.615 547.889 704.412 531.049L704.456 530.611C694.318 536.312 669.3 534.831 661.954 541.64L661.866 542.323L664.993 544.188ZM192.786 840.214C183.51 840.766 173.309 842.708 164.277 845.113C161.465 845.862 157.892 847.316 158.395 850.734C161.12 854.663 168.754 855.814 173.329 856.633C184.466 858.717 195.833 859.291 207.124 858.34C218.821 857.147 233.57 853.425 243.126 846.238C228.3 842.227 207.997 838.636 192.786 840.214ZM634.63 523.286C614.131 493.352 595.58 457.173 580.03 424.053C576.068 415.657 572.331 407.156 568.826 398.559C567.438 395.161 557.704 369.331 556.439 367.798C557.274 381.549 560.174 393.902 563.748 407.231C575.147 449.738 596.627 489.104 629.039 519.204C630.584 520.639 632.702 522.498 634.63 523.286ZM226.439 873.595C221.831 874.826 220.559 875.482 216.25 877.628C237.327 898.178 292.069 910.089 321.449 910.171C325.153 910.132 328.94 910.048 332.636 910.058C313.272 904.535 294.592 896.416 276.005 888.756C261.299 882.697 242.77 871.934 226.439 873.595ZM388.32 530.998C423.858 542.48 456.982 462.006 464.883 435.799C467.518 427.057 480.958 376.088 479.241 370.84C475.339 382.241 470.249 395.049 465.803 405.602C447.101 449.992 426.461 496.537 388.415 527.818C387.632 528.462 387.001 529.221 387.155 530.254L388.32 530.998Z"/><path fill="#F6F2F4" fill-opacity="0.0078431377" d="M756.192 454.474C755.443 450.704 757.204 426.372 756.954 420.107C756.753 415.035 756.289 398.997 756.713 394.11C758.34 405.896 758.508 420.194 758.586 431.964C758.285 439.744 757.409 446.803 756.192 454.474Z"/><path d="M758.586 431.964C759.158 434.436 759.475 435.596 759.628 438.168C759.183 443.764 758.598 449.348 757.874 454.915L756.192 454.474C757.409 446.803 758.285 439.744 758.586 431.964Z"/><path fill="#9D9AA0" fill-opacity="0.21568628" d="M290.651 319.841C291.273 322.403 288.167 332.456 287.256 335.649C286.729 332.938 289.771 322.908 290.651 319.841Z"/><path fill="#F6F2F4" fill-opacity="0.015686275" d="M359.609 540.899C345.927 537.95 331.37 531.875 319.888 523.92L320.08 523.582C322.67 524.136 327.806 527.862 330.893 529.266C340.648 533.702 349.167 536.421 359.63 538.743L360.448 539.995C360.221 540.257 359.865 540.713 359.609 540.899Z"/><path fill="#F6F2F4" fill-opacity="0.023529412" d="M738.354 286.602C739.744 291.209 741.464 300.097 742.379 305.018C742.234 304.196 742.427 304.511 741.892 304.023C740.373 299.374 738.288 291.677 736.456 287.58L738.354 286.602Z"/></svg>