<?xml version="1.0" encoding="utf-8" ?><svg xmlns="http://www.w3.org/2000/svg" xmlns:xlink="http://www.w3.org/1999/xlink" width="1273" height="1025" viewBox="0 0 1273 1025"><path transform="matrix(2.69703 0 0 2.69737 0 -9.53674e-07)" d="M230.343 133.256C234.322 128.236 238.235 123.163 242.081 118.041C252.681 103.931 263.214 90.1555 281.868 87.8492C302.693 85.2745 320.428 101.932 322.402 122.12C324.978 148.462 309.531 175.112 294.227 195.465C286.951 204.961 272.007 214.895 262.46 222.427C258.201 225.787 248.663 233.038 244.214 235.646C250.314 236.675 255.814 239.176 261.752 240.811C273.908 244.158 286.379 247.078 298.708 249.759C308.314 251.848 318.612 252.313 328.374 253.206C365.466 256.601 405.521 254.533 441.153 243.244C450.904 240.154 462.721 234.857 472 230.311L472 234.662C470.96 235.235 469.916 235.803 468.868 236.363C432.042 256.105 388.842 259.563 347.806 258.63C338.78 258.425 329.647 257.905 320.671 256.916C309.375 255.609 298.147 253.767 287.025 251.397C279.47 249.823 271.407 248.26 264.011 246.22C260.035 245.08 256.083 243.862 252.155 242.564C249.867 241.812 241.75 238.878 239.696 239.206C230.478 240.677 219.605 246.621 210.483 249.268C203.639 251.255 198.333 252.464 191.983 254.012C138.41 267.067 84.4167 249.49 33.1549 234.873C22.2729 231.766 10.7494 229.582 0 226.336L0 222.106C13.3766 224.792 27.0165 228.166 40.228 231.63C47.9121 233.897 55.4665 236.49 63.1421 238.801C106.003 251.707 150.97 260.482 195.152 248.534C209.411 244.678 219.623 242.007 233.131 235.516C225.941 233.599 218.477 229.743 211.541 226.944C180.653 214.49 151.558 197.185 134.503 167.5C121.432 144.749 132.466 121.172 153.53 108.984C180.247 93.5255 209.333 99.6797 225.595 126.17C226.908 128.308 228.759 130.49 230.024 132.679C230.135 132.869 230.241 133.061 230.343 133.256ZM233.617 138.405L233.735 138.668C236.418 144.546 244.228 154 242.053 160.151C239.576 167.156 225.499 161.483 223.816 155.564C221.773 148.38 225.871 143.562 227.767 137.306C218.427 122.682 208.749 108.878 190.632 105.438C177.652 102.974 165.055 107.161 154.152 113.902C134.488 126.06 126.095 148.249 139.908 168.498C142.463 172.244 145.145 175.775 147.992 179.375C166.018 201.844 192.624 214.66 218.603 225.447C235.912 232.635 237.737 235.843 254.351 223.843C261.117 218.957 267.903 214.327 274.565 208.822C292.127 194.419 305.39 175.462 312.901 154.027C318.695 137.982 322.543 118.435 310.312 104.124C304.868 97.7546 297.005 92.8506 288.525 92.2274C287.467 92.1501 285.397 91.9646 284.423 92.0881C280.329 92.6983 275.95 93.467 272.163 95.1815C260.325 100.541 252.072 111.731 244.215 121.643C240.742 126.024 235.101 132.986 233.617 138.405ZM228.315 153.994C230.735 157.363 231.853 158.213 236.006 158.739C236.784 158.618 237.439 158.657 237.947 158.208C238 155.488 232.739 143.749 230.54 142.336C228.903 146.645 227.991 149.212 228.315 153.994Z"/></svg>