<?xml version="1.0" encoding="utf-8" ?><svg xmlns="http://www.w3.org/2000/svg" xmlns:xlink="http://www.w3.org/1999/xlink" width="1024" height="713" viewBox="0 0 1024 713"><path transform="scale(1.55623 1.57743)" d="M291.318 197.602C290.202 196.512 285.987 190.967 286.319 189.657C287.561 190.969 290.469 195.377 291.833 197.233L291.318 197.602Z"/><path transform="scale(1.55623 1.57743)" d="M295.932 203.184C297.783 204.069 299.506 207.153 300.739 208.962C300.609 208.914 300.479 208.862 300.351 208.808C297.869 207.741 296.899 205.514 295.932 203.184Z"/><path transform="scale(1.55623 1.57743)" d="M291.833 197.233C293.397 199.155 294.322 199.962 295.293 202.236L295.267 202.464C294.898 202.224 295.045 202.337 294.812 202.145L295.081 202.024L294.644 201.979L294.888 201.712C293.757 201.62 291.992 198.604 291.318 197.602L291.833 197.233Z"/><path transform="scale(1.55623 1.57743)" d="M269.26 160.153C269.797 161.195 269.873 162.589 270.732 163.526C271.124 163.954 271.383 164.55 271.62 165.078C268.957 163.607 268.809 163.046 269.26 160.153Z"/><path transform="scale(1.55623 1.57743)" d="M313.745 224.116C315.175 224.53 316.846 226.995 317.473 228.298L317.04 228.415C315.875 227.053 314.6 225.68 313.745 224.116Z"/><path transform="scale(1.55623 1.57743)" d="M444.381 56.2538C447.569 53.4259 449.616 49.3964 452.354 46.168C453.463 44.8605 454.497 43.5656 456.198 44.5192C458.075 47.2787 457.796 55.9577 457.888 59.694C464.245 63.2323 468.615 62.9114 474.885 68.3748C470.693 70.5506 465.905 71.2636 462.158 73.748C458.045 76.2679 461.139 85.383 458.67 88.3213C455.889 91.6311 448.494 81.5023 447.208 79.7757C444.311 108.928 431.75 138.396 402.264 148.646C395.29 151.069 385.026 153.193 378.991 157.06C365.994 165.388 353.31 180.434 347.21 194.592C349.448 198.308 353.496 202.332 356.554 205.477C371.02 186.779 388.648 169.797 413.887 171.15C426.719 171.838 439.114 177.151 447.582 187.034C458.963 200.319 466.389 208.465 482.572 215.368C482.692 203.146 486.789 199.141 490.343 189.175C488.992 186.218 488.103 184.111 486.11 181.53C483.507 181.299 475.36 181.391 474.499 178.896C474.964 176.669 479.831 172.036 481.704 169.582C480.587 167.427 477.256 160.142 478.502 158.026C481.145 156.849 486.291 160.124 489.645 161.16L490.039 161.28C492.98 160.206 499.389 155.591 501.887 157.765C502.95 160.108 501.099 165.481 500.392 168.082C502.293 169.954 510.204 175.289 509.404 177.699C508.215 178.492 504.114 178.38 502.059 178.854C492.638 181.026 493.503 196.405 491.391 203.903C489.965 208.967 489.152 210.78 486.414 215.178C489.715 215.277 495.236 215.027 497.665 217.291C509.877 228.673 496.133 247.339 481.776 237.02C478.456 234.634 478.361 228.518 478.046 224.675C473.447 220.413 464.009 214.913 458.528 211.105C451.255 206.052 444.22 201.055 437.344 195.404C427.534 187.343 416.55 184.166 403.885 185.852C390.073 187.691 371.439 199.918 363.126 210.92C376.019 230.512 403.24 257.279 402.954 281.958C402.938 283.356 402.337 284.655 401.227 285.445C396.264 288.781 388.187 288.152 382.887 286.17C371.876 282.08 360.739 277.26 348.812 276.957C335.466 276.669 323.253 281.853 309.792 280.149C294.561 278.22 289.578 268.434 295.172 254.575C295.968 252.603 297.681 248.04 298.068 245.978C301.162 229.469 290.027 214.477 281.904 201.218C276.025 191.464 266.945 180.276 268.033 168.282C268.124 167.282 268.435 166.908 269.172 166.374C271.654 167.105 279.028 181.922 280.882 185.123C286.08 194.101 292.021 202.628 298.644 210.613C317.934 234.343 347.997 259.648 374.01 275.886C376.614 277.511 382.625 280.947 385.253 281.949C382.173 279.018 374.808 274.824 371.041 272.173C365.479 268.26 358.841 263.805 353.657 259.482C322.935 233.864 284.271 191.262 269.253 154.046C265.668 163.141 265.069 172.064 262.961 181.5C258.861 199.861 246.939 215.161 235.961 229.947C233.883 232.747 230.506 236.942 229.244 240.057C229.365 244.468 242.384 256.378 245.943 259.444C267.74 278.198 294.302 291.196 322.051 298.439C328.544 300.134 335.591 301.433 342.005 303.521C343.107 303.879 343.84 304.305 344.419 305.311C343.761 310.002 323.581 316.714 318.683 316.431C310.641 315.967 303.114 313.166 295.707 310.371C265.644 299.367 238.409 281.809 215.977 258.971C211.668 266.572 208.096 272.891 204.836 281.032C216.719 297.686 240.235 313.486 258.46 322.587C265.238 325.971 274.278 329.842 280.041 334.461C279.495 335.239 278.894 335.996 278.229 336.677C274.769 340.223 266.418 343.915 261.491 343.984C247.949 344.174 204.727 311.741 193.978 301.146C188.247 308.977 183.714 315.464 183.061 325.529C188.168 333.99 204.711 343.932 213.003 349.77C217.848 353.181 220.855 354.614 225.059 359.292C223.551 361.083 221.135 362.668 219.01 363.579C211.229 366.915 206.207 369.803 198.678 364.308C189.65 357.718 182.204 350.141 172.718 344.277C170.226 342.736 167.704 341.354 165.35 339.672C160.48 350.651 139.919 380.602 140.092 389.747C140.124 391.447 140.783 393.003 142.095 394.108C144.764 396.357 148.619 396.158 151.826 395.512C159.915 393.88 167.533 389.341 175.031 386.026C187.6 380.467 200.295 375.127 212.609 369.02C218.659 366.02 224.997 363.837 231.147 361.073L285.015 337.061C318.142 322.511 351.046 307.405 384.192 292.887C389.304 290.647 393.782 289.863 398.962 288.214C401.942 287.265 402.827 283.506 407.394 283.734C419.888 284.36 429.375 292.474 439.511 298.786C464.465 314.136 491.67 316.008 519.736 309.412C537.845 305.156 555.09 297.217 571.357 288.365C580.36 283.466 589.158 277.461 598.09 272.623C615.555 263.163 638.108 255.299 658 254.044L658 256.395C639.077 259.48 623.518 262.865 606.121 271.456C595.269 276.815 585.659 283.376 575.315 289.289C536.156 311.674 488.546 327.143 445.657 305.293C433.109 298.901 420.746 286.972 406.211 286.338C405.461 287.031 402.52 289.821 401.806 290.113C395.969 292.502 389.924 293.275 384.085 295.885C362.974 305.325 341.803 314.717 320.681 324.12L206.34 375.034C190.259 382.124 174.268 389.499 158.092 396.316C153.075 398.43 143.663 400.559 139.74 395.948C132.851 387.849 145.654 370.163 149.75 362.747C154.263 354.578 158.556 346.306 163.066 338.608C160.209 337.814 156.556 336.507 153.881 335.891C146.159 334.102 138.048 335.259 131.135 339.136C120.826 344.889 114.704 355.706 101.7 352.277C83.7845 347.553 74.1279 308.145 52.0822 320.685C47.0845 323.528 42.5873 328.352 38.9131 332.728C28.4063 345.241 17.053 355.489 0 357.395L0 354.72C20.1594 350.998 26.2659 342.94 39.4551 327.974C43.3477 323.557 47.9466 319.142 53.4204 316.974C76.1655 307.966 84.5604 341.964 101.247 349.288C110.329 353.275 118.093 345.132 124.644 340.201C127.25 338.239 130.508 336.191 133.604 334.955C144.839 330.47 153.892 332.287 164.43 336.539C165.138 335.005 166.071 333.549 166.891 332.071C175.381 316.774 184.051 301.554 192.614 286.303L216.956 242.417C225.128 227.722 233.033 212.881 240.668 197.899C246.345 186.638 251.475 175.097 257.795 164.164C260.791 158.981 264.487 153.404 268.773 149.207C270.662 147.357 272.622 146.069 275.37 146.129C288.264 146.413 327.665 178.167 337.265 187.984C337.454 167.789 343.682 148.067 345.175 128.149C346.312 112.982 336.291 92.7677 326.231 81.8895C320.717 81.6738 315.069 81.8303 311.51 76.8294C307.276 70.8819 308.388 63.6844 314.459 59.5454C317.849 57.2204 322.024 56.3382 326.064 57.0932C337.832 59.3475 335.211 70.2727 333.353 78.8063C339.935 88.2682 351.439 97.5552 353.974 109.35C356.895 122.939 353.58 141.269 349.623 154.461C347.787 160.581 345.284 166.313 343.595 172.565C341.877 178.919 340.936 184.605 339.864 191.05C346.666 179.87 349.641 167.409 358.168 157.085C370.675 141.944 390.007 142.694 406.409 134.116C421.53 126.209 431.781 112.142 438.476 96.7297C440.935 91.0674 442.563 85.2314 444.45 79.405C439.873 81.1598 434.924 83.0931 430.19 84.4092C428.92 84.7621 427.923 84.7857 427.209 83.6133C427.36 80.083 434.567 72.3846 437.03 68.5663C433.896 64.2593 429.198 58.2912 427.1 53.5788C432.551 54.0869 438.737 55.4977 444.381 56.2538ZM466.957 213.32C470.279 215.515 481.098 221.86 480.716 225.356C479.471 236.75 491.112 241.783 498.199 232.943C500.714 230.079 499.708 220.588 495.823 219.352C486.59 216.416 479.733 219.233 470.696 212.809C445.457 194.868 435.754 165.222 398.424 175.45C378.208 180.989 371.864 193.407 358.269 207.478C358.886 210.502 358.908 211.2 357.365 213.988C355.478 217.397 343.02 225.521 340.443 220.388C340.291 216.022 350.759 209.399 354.369 207.287C350.27 203.153 348.377 200.502 344.797 196.373C343.722 199.032 342.355 200.658 340.149 202.538C338.327 204.091 329.549 211.182 327.569 207.562C327.572 203.523 335.686 196.022 338.738 192.877C327.283 182.713 287.906 147.948 273.904 148.721C273.702 148.732 273.501 148.755 273.3 148.778C272.399 149.503 271.797 150.067 271.676 151.268C271.211 155.92 275.462 162.684 277.687 166.662C288.49 185.977 301.649 203.36 316.317 219.891C330.325 235.679 346.274 250.574 363.242 263.153C370.11 268.245 377.286 272.821 384.388 277.572C387.908 279.926 391.24 284.287 395.722 284.612C396.848 284.694 397.956 284.484 398.834 283.736C400.071 282.682 400.428 280.837 400.497 279.285C401.143 264.729 380.45 238.168 371.349 226.413C367.652 221.638 362.676 216.643 360.373 211.048C365.886 200.095 384.509 189.003 395.55 184.932C404.764 181.535 421.835 181.996 430.127 187.323C442.645 195.366 453.983 205.167 466.957 213.32ZM205.034 364.884C211.78 363.724 215.35 361.901 221.438 358.978C212.453 352.922 182.463 334.964 180.663 325.301C179.393 318.486 184.581 308.934 188.467 303.445C189.922 301.389 191.531 299.612 193.633 298.205C200.219 301.683 208.491 309.766 214.687 314.526C226.807 323.836 238.55 331.429 252.15 338.353C263.267 344.013 266.77 339.449 276.484 334.91C272.432 332.561 264.856 328.823 260.438 326.811C241.693 317.152 225.36 307.587 210.587 292.167C207.868 289.33 203.678 284.928 202.038 281.381C202.852 275.3 211.248 260.29 215.068 255.64L215.466 255.84C219.559 257.926 225.661 263.826 229.278 267.081C233.455 270.878 237.755 274.536 242.171 278.051C248.391 282.946 254.919 287.438 261.714 291.498C270.615 296.766 280.938 301.638 290.523 305.595C298.92 309.062 309.299 313.018 318.309 313.604C324.941 314.035 335.053 308.837 340.987 305.896C314.622 299.594 287.572 291.701 264.571 276.964C254.537 270.536 230.3 252.234 226.042 240.899C227.638 237.039 233.565 229.311 236.324 225.417C244.685 213.66 253.775 201.789 258.441 187.968C260.311 182.428 261.4 175.986 262.516 170.226C262.91 168.194 264.82 160.697 264.199 159.207C252.843 177.401 245.424 194.944 235.506 213.725C224.865 234.299 213.788 254.644 202.282 274.746C198.409 281.672 194.331 288.453 190.473 295.422L175.566 321.932C173.056 326.383 169.433 333.364 166.548 337.435C174.191 340.583 185.874 350.453 192.362 355.834C196.247 359.057 200.366 362.796 205.034 364.884ZM480.345 159.537C484.628 168.405 486.016 171.719 476.908 177.975C479.183 178.192 484.99 178.592 486.879 179.197C489.992 181.015 490.95 183.339 491.839 186.797L491.889 187C495.548 178.051 496.346 176.633 506.067 175.731C502.861 173.919 499.97 171.969 497.926 168.844C498.073 166.814 499.544 160.661 499.221 160.03L498.839 159.966C495.94 161.633 493.244 163.156 490.013 164.141C486.164 162.701 483.751 161.912 480.345 159.537ZM355.572 209.387C352.044 211.816 346.982 215.459 344.236 218.701C344.258 219.223 344.146 219.145 344.387 219.382C347.785 217.864 355.82 214.078 356.06 210.07C355.866 209.738 355.846 209.598 355.572 209.387ZM332.353 204.873C335.04 203.215 340.349 199.771 341.116 196.59L340.909 195.822L340.298 195.497C338.85 196.938 332.03 203.413 331.827 204.797L332.353 204.873ZM485.877 210.802C487.79 206.995 489.624 202.092 490.098 197.866C489.967 197.543 489.956 197.385 489.737 197.167C488.416 200.023 485.744 207.079 485.517 210.118C485.596 210.28 485.771 210.69 485.877 210.802ZM454.051 47.7304C446.993 59.1032 444.822 61.1171 431.328 56.292C440.835 67.8433 442.157 70.625 430.082 81.5798C433.832 80.1208 438.859 78.0801 442.702 77.2162C449.142 76.8851 453.737 82.0042 456.997 87.0498C456.6 73.3145 457.33 71.63 470.539 67.4509C465.973 66.1869 458.458 64.3104 455.795 60.1479C453.651 56.796 455.996 49.7155 454.051 47.7304ZM375.553 280.291C372.204 278.15 368.597 276.161 365.404 273.946C329.168 248.812 295.086 217.369 273.948 178.201C273.315 177.027 271.704 173.652 270.745 173.037C271.842 180.087 276.558 187.064 280.142 193.22C289.201 208.781 303.796 226.377 300.745 245.625C299.228 255.196 289.983 266.375 300.702 274.277C306.321 278.517 318.187 278.281 324.828 277.032C337.113 274.722 347.353 273.204 359.795 275.806C361.624 276.189 365.942 276.895 367.629 277.493L375.553 280.291ZM343.181 194.596C344.905 193.738 347.732 186.974 349.12 184.913C362.665 164.816 374.314 152.47 398.384 147.035C418.809 142.423 434.755 122.225 439.919 102.76C440.336 101.43 440.936 100.259 440.711 98.8737C433.419 112.163 427.043 122.999 414.536 132.361C408.158 137.134 400.053 140.322 392.723 142.207C369.078 148.289 357.201 155.983 348.493 179.432C347.487 182.141 342.445 191.802 342.645 193.613L343.181 194.596ZM321.319 59.561C318.019 60.2384 315.204 61.7 313.278 64.5722C311.921 66.5651 311.442 69.0281 311.953 71.3847C314.113 81.6676 323.332 77.1716 327.154 79.5989C336.011 85.2228 342.879 103.596 346.159 113.37C350.221 128.738 344.308 149.728 342.318 165.695C342.118 166.54 342.006 166.402 342.285 167.035C343.733 164.94 344.889 160.565 345.744 157.987C350.319 144.206 354.41 126.984 352.184 112.441C350.905 104.087 343.918 94.9384 338.228 88.9911C335.541 86.1822 332.463 82.8247 330.62 79.3947C332.564 70.2012 335.858 58.5888 321.319 59.561Z"/><path transform="scale(1.55623 1.57743)" d="M229.263 229.574L229.829 230.091C228.89 231.856 226.9 234.681 225.733 236.446C226.797 233.407 227.54 232.3 229.263 229.574Z"/><path transform="scale(1.55623 1.57743)" d="M229.263 229.574C229.718 228.409 229.831 227.982 230.679 227.01L231.173 226.94C231.205 228.187 230.544 228.915 229.829 230.091L229.263 229.574Z"/><path transform="scale(1.55623 1.57743)" d="M424.093 126.758L424.396 127.509C423.553 128.389 421.796 130.429 420.675 130.565L420.359 131.029L420.444 130.655L420.655 130.741C420.782 129.664 423.157 127.665 424.093 126.758Z"/><path transform="scale(1.55623 1.57743)" d="M424.093 126.758C425.061 125.738 426.228 124.311 427.452 123.784C427.405 124.919 425.893 126.142 425.056 126.91C424.837 127.111 424.617 127.311 424.396 127.509L424.093 126.758Z"/><path transform="scale(1.55623 1.57743)" d="M348.291 137.135C348.553 136.138 349.072 133.544 349.639 132.888L349.32 133.232L349.701 133.596C349.52 134.99 349.384 137.296 349.115 138.559L348.291 137.135Z"/><path transform="scale(1.55623 1.57743)" d="M350.195 121.319L350.723 121.95C351.101 123.545 350.835 125.242 350.68 126.887C349.962 125.39 349.983 122.948 350.195 121.319Z"/><path transform="scale(1.55623 1.57743)" d="M348.291 137.135L349.115 138.559C348.992 139.323 348.889 140.748 348.409 141.24C348.137 139.906 348.251 138.503 348.291 137.135Z"/><path fill="#F6F2F6" fill-opacity="0.0078431377" transform="scale(1.55623 1.57743)" d="M489.737 197.167C489.956 197.385 489.967 197.543 490.098 197.866C489.624 202.092 487.79 206.995 485.877 210.802C485.771 210.69 485.596 210.28 485.517 210.118C485.744 207.079 488.416 200.023 489.737 197.167Z"/></svg>