<?xml version="1.0" encoding="utf-8" ?><svg xmlns="http://www.w3.org/2000/svg" xmlns:xlink="http://www.w3.org/1999/xlink" width="1280" height="601" viewBox="0 0 1280 601"><path fill="#010101" fill-opacity="0.98823529" d="M605.431 201.526C620.006 195.699 639.806 195.924 655.217 200.479C657.82 201.249 666.137 208.48 669.068 209.33C678.001 200.257 649.279 142.338 655.978 133.253C661.03 129.453 738.299 134.065 750.921 133.281C754.98 133.029 772.537 134.178 777.391 134.839C779.026 135.067 780.645 135.395 782.24 135.821C789.035 147.138 801.399 180.775 803.856 193.674C818.339 195.167 837.258 195.488 851.862 195.94L920.235 198.093L968.532 199.912C981.355 200.429 995.299 201.226 1008.07 200.213C1026.32 180.526 1000.81 182.954 1007.5 175.097C1013.98 172.179 1021.13 177.557 1026.51 181.006C1012.07 198.627 1024.64 193.239 1025.77 199.706C1025.87 200.279 1025.96 200.854 1026.03 201.431C1028.07 203.234 1033.9 203.098 1036.5 204.385C1058.32 215.207 1057.79 229.034 1058.12 249.917C1064.76 238.236 1075.78 233.219 1087.03 226.677C1088.2 225.999 1091.59 227.353 1092.52 228.164C1098.24 232.402 1102.51 240.287 1103.71 247.163C1104.13 249.717 1104.4 252.295 1104.51 254.883C1121.55 263.587 1137.64 273.057 1147.65 290.035C1151.34 296.298 1155.35 303.084 1157.24 310.141C1161.39 325.625 1166.26 342.704 1143.66 340.884C1146.5 348.835 1147.57 352.389 1148.44 360.729C1152.67 360.175 1159.09 359.416 1162.92 357.6C1163.22 356.324 1163.14 353.833 1164.19 353.409C1179.92 347.065 1175.98 367.215 1173.63 374.769L1173.53 375.086C1166.27 376.996 1155.72 379.852 1148.36 380.978C1143.62 412.537 1127.97 434.653 1095.47 441.524C1110.56 441.64 1238.49 440.897 1241.59 442.519C1234.21 446.209 1168.1 443.304 1153.85 443.618C1127.83 444.19 1097.79 443.419 1071.37 443.525C1049.56 443.213 1029.77 431.228 1020.03 411.676C1019.75 411.115 1019.48 410.553 1019.2 409.988C1039.32 402.932 1073.88 406.453 1085.82 391.655C1074.59 393.212 1025.53 401.787 1018.64 397.193C1017.2 396.232 1016.71 394.101 1016.5 392.483C1015.69 386.11 1017.22 378.851 1021.29 373.766C1022.49 372.264 1024.06 370.961 1026.03 370.675C1027.64 370.441 1029.33 371.512 1030.52 372.502C1031.24 373.104 1031.86 373.691 1032.25 374.558L1030.72 376.019C1028.86 373.234 1024.33 372.424 1023.09 375.414C1024.63 376.44 1027.94 376.189 1029.94 376.197L1031.24 378.222C1028.8 378.811 1022.24 378.438 1019.61 378.15C1019.32 382.896 1018.49 388.618 1019.4 393.28C1019.6 394.327 1019.77 395.406 1020.8 395.946C1029.52 400.533 1144.98 379.847 1160.47 376.253L1172.11 373.104C1173.28 368.884 1175.68 361.507 1172.58 358.04C1169.51 357.858 1154.9 362.131 1150.57 362.873C1111.41 369.583 1070.92 376.243 1031.24 378.222C1032.59 377.177 1033.31 377.045 1034.89 376.562C1045.42 374.716 1056.05 374.75 1066.78 372.575C1046.51 371.361 1047.45 360.688 1032.46 354.338C1020.42 358.9 1016.04 359.295 1003.76 354.068C1012.84 376.208 1012.91 401.021 1003.94 423.208C988.953 460.206 949.551 474.44 912.045 470.625C876.166 466.976 851.241 441.223 841.795 407.372C820.941 407.313 800.376 406.096 779.596 405.454C736.841 404.035 694.073 403.037 651.299 402.46L618.192 402.139C612.373 402.042 604.948 401.58 599.327 401.877C588.607 412.388 577.735 420.109 562.219 421.24C540.959 422.788 521.253 417.753 511.307 397.479L467.862 393.923C460.268 393.315 449.842 392.725 442.42 391.604C434.904 419.827 411.467 436.974 382.099 435.355C378.501 434.309 368.057 435.132 362.921 434.629L362.207 433.665C361.833 433.149 353.204 428.771 351.774 428.044C347.422 425.83 345.033 424.034 341.402 420.782C324.991 406.088 323.527 385.621 316.092 366.505C311.305 360.992 278.38 373.053 268.452 368.069C260.639 364.148 264.918 367.262 260.849 360.202C254.484 357.324 251.32 362.911 247.446 363.441C245.262 363.11 243.675 360.926 242.117 359.242C240.372 358.998 235.57 358.458 234.281 357.865C227.096 354.559 222.037 347.663 213.687 347.014C205.627 346.172 198.527 350.687 190.855 351.828C174.115 354.318 150.479 354.6 138.356 340.62C135.802 337.675 134.208 333.027 134.759 329.222C135.363 324.946 137.676 321.099 141.169 318.559C146.758 314.491 153.297 315.49 159.592 316.418C157.106 301.741 159.59 290.641 176.912 292.868C183.297 296.977 183.635 298.092 187.649 304.229C193.794 318.661 195.265 329.391 193.437 344.985C191.748 333.705 192.297 292.654 169.343 294.75C158.379 295.751 159.607 311.105 163.645 319.666C158.052 318.818 146.389 315.401 142.686 319.436C124.637 339.108 151.903 349.358 166.067 350.875C173.472 351.662 180.953 351.351 188.268 349.955C197.462 348.148 206.393 344.972 215.909 345.277C224.034 345.537 234.943 361.381 242.382 355.731C242.787 354.73 242.999 354.45 242.509 353.387C239.508 346.885 209.182 341.771 216.363 317.454C221.76 299.178 249.309 279.736 238.357 258.764C237.135 256.424 235.246 255.037 232.741 254.27C229.009 253.128 224.732 253.983 221.362 255.822C215.73 258.895 213.595 265.852 211.747 271.581C208.438 266.123 204.259 259.68 197.659 257.981C194.615 257.191 191.379 257.692 188.717 259.365C178.725 265.582 182.307 278.083 187.427 286.204C194.275 297.066 205.255 301.948 213.71 310.643C198.373 304.845 174.777 282.71 182.373 264.338C189.064 248.152 203.097 255.716 211.375 266.339C225.31 236.48 254.66 256.697 238.066 284.98C230.437 297.982 214.53 313.449 218.157 328.829C219.972 336.463 234.005 347.301 241.593 348.611C243.556 347.309 242.658 345.281 245.432 343.808C252.868 339.861 266.284 338.812 274.779 337.771C271.706 321.491 273.888 320.135 289.743 316.33C292.973 305.685 295.944 294.962 298.653 284.172C306.576 252.813 309.77 231.578 343.471 220.641C346.346 216.744 346.521 217.748 350.517 215.945C351.569 210.24 343.703 193.542 355.459 185.706C358.807 183.497 363.432 182.424 367.406 182.363C385.441 182.087 403.333 184.4 421.409 184.335C430.875 184.301 439.602 183.645 448.943 182.942C463.094 182.052 477.365 179.53 491.408 182.604C502.693 185.074 513.373 188.869 524.45 191.984C535.875 195.196 547.067 195.658 557.253 202.313C572.962 199.166 589.784 196.824 605.431 201.526ZM539.451 230.017C539.088 255.151 537.003 345.721 546.448 364.423C561.688 368.379 595.716 366.708 612.345 365.529C628.607 364.936 681.517 360.668 692.468 347.169C703.049 334.127 692.35 288.902 688.703 271.85C685.726 257.276 682.369 242.783 678.635 228.384C660.286 227.844 640.488 227.078 622.211 227.693C594.603 228.467 567.057 228.654 539.451 230.017ZM1048.81 363.799C1038.57 346.829 1032.41 331.327 1023.39 315.769C1008.07 288.769 982.211 269.348 952.005 262.15C905.519 250.593 866.51 269.415 827.898 292.86C784.604 319.146 741.433 350.155 693.971 368.452C644.899 387.37 587.677 390.074 535.625 388.936C513.905 388.562 492.203 387.479 470.553 385.688C463.182 385.049 445.247 384.093 439.399 380.378L438.777 379.243C439.873 376.801 442.046 376.371 444.507 375.618L450.749 374.524C464.678 371.1 502.506 375.768 517.648 376.614C582.443 380.231 660.298 378.051 719.732 349.774C691.503 325.372 696.79 264.867 725.61 242.895C729.957 239.58 742.779 234.882 744.2 230.669C742.323 229.297 688.537 228.513 680.78 228.33C683.061 237.362 685.292 246.406 687.476 255.462C691.756 273.511 705.929 331.387 695.587 347.391C690.105 355.874 674.13 359.421 665.048 361.368C646.843 365.269 558.847 374.76 545.601 365.923C535.328 359.068 536.787 281.988 536.836 267.603C536.88 254.748 538.507 241.492 535.912 228.827C533.693 238.84 533.73 251.39 533.634 261.746C533.354 281.787 533.822 301.832 535.035 321.838C535.683 333.302 536.691 344.864 537.251 356.33C537.398 359.336 536.762 363.671 534.487 365.863C532.704 367.581 529.054 368.434 526.579 368.202C511.094 366.717 494.831 367.81 479.622 364.538C463.839 361.143 466.221 342.729 463.645 330.883C460.293 315.47 455.583 300.055 448.846 285.782C442.912 273.21 430.132 264.316 428.022 250.236C425.2 233.803 439.049 221.115 439.47 212.161C437.174 206.567 410.536 200.621 405.302 201.63C407.386 203.689 428.447 205.378 430.356 211.621C438.795 239.221 379.582 235.971 365.512 232.724C356.403 230.622 352.627 225.361 348.174 217.74L344.958 222.192C339.383 224.417 335.77 225.563 330.51 228.6C308.715 241.182 306.321 264.535 300.505 286.565C297.734 297.06 294.723 307.541 291.972 318.11C277.286 322.13 271.907 322.266 277.877 338.48C285.933 327.549 293.849 316.515 301.624 305.382C316.676 283.886 331.91 259.713 357.545 250.097C373.152 244.223 390.456 244.796 405.639 251.69C428.031 261.985 443.046 284.806 451.31 307.661C456.19 321.155 463.559 353.83 457.996 367.87C456.667 371.223 453.671 372.222 450.532 373.321C448.412 373.668 446.274 373.955 444.227 374.595C435.552 376.292 431.485 377.134 431.909 387.308C433.487 388.942 447.937 389.948 450.909 390.247C498.384 394.849 546.031 397.47 593.725 398.102C628.48 398.717 797.402 394.703 817.288 375.245C825.312 367.395 829.901 348.381 834.281 337.81C846.435 308.476 873.744 288.277 905.824 288.013C929.867 287.814 951.134 298.129 968.011 314.865C980.305 327.058 997.848 355.301 1016.61 355.498C1019.79 355.532 1023.02 354.584 1026.12 353.942C1036.67 351.751 1041.69 357.003 1048.81 363.799ZM748.931 222.389C770.516 223.411 792.612 223.505 814.243 223.919L893.465 225.567C917.556 225.935 941.722 226.05 965.769 227.562C968.594 227.739 974.336 228.324 974.185 231.867C969.62 236.547 922.848 233.769 914.256 233.631L786.828 230.96C781.214 230.854 748.866 229.022 746.613 230.929C748.538 232.557 756.054 231.755 758.91 231.598C790.699 229.851 819.04 251.576 824.68 283.005C825.443 287.261 823.472 291.26 821.31 294.835C830.494 288.493 837.707 284.184 847.575 278.946C866.513 268.767 887.47 259.676 909.041 257.608C910.96 257.424 919.686 256.74 919.337 254.643C917.965 246.389 934.174 243.327 940.083 243.987C942.112 244.214 944.607 245.319 946.038 247.395C947.088 248.899 947.46 250.773 947.064 252.563C946.67 254.368 946.11 256.245 945.6 258.025C961.726 262.668 969.943 264.28 985.128 272.991C980.488 266.226 980.155 265.918 980.255 256.227C980.342 247.78 998.529 238.204 998.713 236.577C1000.6 219.902 1007.52 215.435 1021.93 205.172C1013.9 203.559 1005.84 200.68 999.101 205.672C991.965 210.957 980.857 220.15 979.735 229.381C978.136 242.546 979.976 254.522 978.167 267.993C976.475 262.146 976.552 234.977 977.645 228.637C978.114 225.955 979.037 223.372 980.374 221C984.457 213.699 992.062 208.185 998.613 203.151C952.133 200.966 906.554 200.08 860.176 198.493C847.505 198.05 834.837 197.512 822.174 196.879C814.27 196.494 801.859 195.617 794.32 196.389C775.449 201.04 761.035 206.549 748.931 222.389ZM420.69 400.344C413.584 416.474 403.327 426.432 387.379 434.076C414.736 427.956 432.041 420.736 440.102 391.504C424.452 389.624 417.675 388.981 417.634 370.597C417.562 337.239 411.094 284.12 365.938 288.096C311.035 299.179 307.151 394.533 350.016 422.585C370.85 436.219 393.888 429.791 406.569 409.359C409.148 405.204 416.091 392.146 421.152 391.978C422.537 394.111 421.351 398.03 420.69 400.344ZM438.534 222.276C432.214 228.859 430.373 238.376 430.267 247.241C430.146 258.73 440.005 267.988 446.039 277.107C456.698 293.215 461.196 311.162 465.557 329.69C467.399 337.515 467.54 349.26 471.125 356.194L471.317 356.57C473.015 359.857 475.35 360.9 478.79 361.975C485.892 364.193 525.645 367.659 531.579 364.581C533.118 363.784 533.596 362.799 534.052 361.211C536.145 353.923 532.953 335.395 532.537 326.887C531.838 291.903 530.598 266.095 532.484 230.539C504.955 231.126 474.176 236.889 447.016 241.22C451.042 241.723 457.625 241.83 459.982 244.794C459.118 249.708 438.721 250.618 435.554 248.649C433.95 242.443 441.311 240.586 446.067 239.446C474.131 232.72 503.794 230.354 532.444 228.23C532.605 224.055 532.75 220.308 533.193 216.154C527.826 216.183 522.46 216.295 517.097 216.491C502.371 217.032 487.654 217.809 472.953 218.822C461.521 219.55 449.734 219.967 438.534 222.276ZM843.663 404.941C849.29 404.597 858.656 404.401 862.812 400.043C864.361 398.419 863.3 377.18 864.058 372.533C867.789 349.664 884.364 331.406 908.023 329.331C920.527 328.235 932.402 332.288 941.985 340.33C954.054 350.455 961.251 366.057 962.547 381.627C963.921 398.123 960.138 415.254 949.252 428.088C941.591 437.12 930.464 443.204 918.607 444.169C911.317 444.762 904.44 443.469 897.572 441.1C882.531 433.923 872.626 423.211 867.047 407.44C866.373 405.536 865.679 403.623 865.091 401.691C858.329 405.051 851.692 406.205 844.296 407.392C851.233 429.455 864.152 449.634 885.157 460.537C901.545 469.044 918.558 470.671 936.191 465.053C953.692 459.477 967.924 446.725 976.285 430.488C987.575 408.563 989.155 381.888 981.557 358.535C975.239 339.117 962.542 320.934 944.012 311.513C931.353 305.077 918.962 303.832 904.987 304.546C883.539 308.745 867.904 316.924 855.458 335.543C841.464 356.477 838.673 380.191 843.565 404.463L843.663 404.941ZM263.466 363.65C278.399 369.777 299.36 369.296 305.133 351.218C316.16 316.687 319.406 277.64 364.572 277.159C401.643 279.187 417.779 322.698 419.454 353.9C419.837 361.048 417.941 386.495 428.148 387.299L428.914 386.887C429.48 384.355 431.064 376.38 432.928 375.7C453.907 368.048 459.523 375.706 457.335 347.251C455.658 325.451 448.394 300.936 435.88 281.992C423.722 262.748 401.475 245.908 377.483 248.289C351.509 250.019 332.77 265.459 318.311 286.005C301.653 309.674 284.635 332.972 267.063 355.966C265.763 357.666 264.204 361.613 263.466 363.65ZM840.981 404.959C833.355 366.274 847.545 323.69 885.767 307.389C902.824 300.122 922.067 299.91 939.281 306.799C1000.41 331.611 1006.28 433.475 946.466 463.222C942.453 465.218 938.806 466.871 934.65 468.588C956.039 465.09 975.264 458.588 989.929 441.744C1005.11 424.305 1009.49 401.052 1007.86 378.512C1007.4 372.248 1006.49 365.471 1003.65 359.783C999.686 351.839 968.461 317.756 960.616 311.037C943.613 296.475 922.083 288.698 899.661 290.446C868.555 292.87 845.775 315.274 834.502 343.188C830.156 353.948 827.458 366.79 819.742 375.735C817.938 377.826 815.671 379.944 813.168 381.171C787.045 393.972 701.954 396.791 669.065 399.145C665.18 399.052 660.447 399.258 656.495 399.322C653.817 399.231 650.117 398.861 647.689 399.715C649.273 400.565 654.337 400.518 656.276 400.414L672.921 400.491C678.379 400.413 684.073 400.826 689.556 400.938C740.015 401.969 790.527 404.149 840.981 404.959ZM1058.22 262.855L1057.96 324.523C1057.88 333.122 1057.68 341.813 1057.69 350.397C1057.69 357.15 1050.12 356.784 1048.88 359.529C1051.75 368.441 1071.38 374.024 1076.43 368.448C1077.09 364.569 1071.78 359.673 1069.38 356.149C1069.43 353.003 1069.4 349.624 1069.71 346.511C1056.72 334.922 1055.37 326.147 1069.93 314.884C1074.49 312.479 1077.42 311.117 1082.61 310.118C1100.67 316.309 1099.36 342.155 1084.28 350.36C1096.71 352.743 1106.52 353.589 1115.51 363.268C1117.92 353.441 1119.45 347.247 1127.97 340.857C1137.13 333.987 1155.6 345.205 1157.84 333.554C1160.22 321.251 1152.94 302.319 1146.43 292.185C1135.16 274.656 1122.62 266.784 1104.67 257.661C1103.04 268.378 1100.19 288.045 1084.56 285.956C1076.21 284.84 1065.87 274.1 1061.21 267.395C1060.18 265.903 1059.18 264.39 1058.22 262.855ZM797.761 309.183C804.157 305.365 810.435 301.352 816.585 297.151C805.431 299.642 804.532 305.14 794.637 305.889C791.704 302.591 792.4 290.095 790.17 284.2C773.881 241.152 725.684 254.86 721.973 296.513C721.024 307.158 723.574 319.029 729.536 328.343C732.386 332.795 740.702 338.941 734.071 344.653C670.414 379.87 593.735 382.231 522.643 378.978C498.607 377.878 460.49 371.169 438.891 380C461.577 382.927 482.317 384.367 505.124 385.55C566.002 388.705 635.991 388.165 693.559 366.098C726.927 353.306 767.164 328.979 797.761 309.183ZM688.312 197.75C700.726 194.611 711.556 190.034 724.5 186.962C727.281 183.387 729.641 180.016 733.342 177.398C748.286 166.826 763.874 168.055 768.43 187.432C776.214 188.564 786.488 190.316 794.123 190.73C792.821 178.59 784.064 152.598 776.755 142.849C764.695 140.879 747.725 140.647 735.304 140.311C713.935 139.733 692.559 139.455 671.183 139.478C670.114 140.569 669.061 141.452 669.381 143.303C672.058 158.804 681.454 184.218 688.312 197.75ZM883.606 388.383L889.338 385.048L893.696 382.141C891.7 379.146 889.774 376.02 887.6 373.155C883.096 372.196 878.613 371.21 874.038 370.64C872.999 375.126 872.321 379.129 872.511 383.766C876.158 385.502 879.811 387.002 883.606 388.383ZM935.623 385.458C932.947 386.796 930.221 388.083 927.58 389.487L933.838 395.827C939.011 396.48 944.188 397.219 949.378 397.708C951.544 397.852 952.546 398.119 954.525 397.157C956.057 395.087 955.687 392.043 955.665 389.577C948.993 388.162 942.312 386.789 935.623 385.458ZM925.637 380.519C932.916 382.551 933.199 383.353 940.03 381.336L940.435 381.214L941.018 383.241L941.359 383.957C945.454 385.379 951.303 386.272 955.697 387.074C955.677 383.712 955.47 380.153 955.333 376.779L956.023 376.413L954.714 374.307C953.847 371.85 952.838 368.702 951.788 366.375C946.049 368.077 937.698 370.292 932.259 372.253C930.019 374.882 927.519 377.647 925.637 380.519ZM475.779 191.17C498.004 189.449 510.648 190.303 517.593 214.369C525.201 213.65 527.661 213.374 535.014 214.934C535.045 217.273 534.809 225.83 535.659 227.315L536.721 227.3C538.254 224.421 537.008 219.596 538.41 216.858C539.021 215.665 543.362 215.038 543.406 213.141C542.339 211.367 541.511 210.401 541.765 208.367C544.065 204.817 550.632 203.654 554.755 202.656C543.03 197.87 535.544 197.533 524.235 194.441C500.871 188.053 488.958 181.253 463.891 184.034C443.803 186.122 429.625 186.776 409.217 186.19C395.5 185.795 373.005 183.202 360.384 185.605C367.463 191.566 375.635 194.175 384.382 196.955C386.486 197.623 396.154 200.46 397.927 199.536C396.017 198.179 395.421 198.226 394.604 196.388C399.289 190.679 465.114 191.655 475.779 191.17ZM883.409 391.03C879.766 392.738 875.175 394.51 873.744 398.634C872.372 402.589 874.426 406.793 876.047 410.357L880.852 408.281L889.353 404.441C890.788 401.016 892.148 397.596 893.374 394.09C890.062 392.84 886.891 391.722 883.409 391.03ZM270.467 340.716C263.547 341.689 256.433 342.384 249.634 344.01C254.02 349.25 253.414 356.861 253.578 357.057C253.818 357.345 254.217 357.448 254.537 357.643C257.13 357.587 259.725 357.569 262.305 357.277C265.075 353.889 273.858 345.055 273.61 340.902C272.413 340.445 271.719 340.505 270.467 340.716ZM904.003 396.558C907.356 395.797 909.968 395.085 911.908 392.049C913.184 390.05 913.741 387.508 913.228 385.176C912.744 382.981 911.272 381.086 909.367 379.926C907.27 378.648 905.191 378.542 902.799 378.605C898.026 382.621 897.132 386.295 895.773 392.162L896.01 392.291C898.897 393.889 900.243 396.639 902.7 398.133L903.56 396.667L904.003 396.558ZM872.632 368.416L881.748 369.495L883.907 369.49C884.377 366.648 882.323 364.169 880.732 361.939C879.635 360.402 878.43 359.016 877.087 357.686C875.472 361.214 873.796 364.707 872.632 368.416ZM947.969 416.717C948.553 415.22 949.37 414.157 948.738 412.581C946.88 407.948 935.884 399.967 931.322 398.24C929.6 397.588 927.547 397.472 925.729 397.275C927.866 405.024 930.689 411.32 937.975 415.501C939.991 416.657 943.78 418.446 946.164 417.694C946.812 417.49 947.411 417.096 947.969 416.717ZM1055.18 348.211C1056.03 342.018 1055.69 321.96 1055.48 315.164C1055.77 310.438 1055.71 305.475 1055.72 300.722C1056.99 290.917 1055.84 269.656 1055.74 259.258C1055.67 251.736 1056.08 233.806 1055.18 227.096C1053.95 223.721 1052.06 221.175 1049.72 218.532C1037.94 203.932 1028.84 200.694 1014.18 213.773C1010.59 216.975 1001.37 226.072 1001.34 230.945L1002.13 231.631C1012.62 222.153 1024.53 221.683 1038.31 221.535C1042.11 221.494 1046.25 222.628 1049.82 223.868C1052.84 226.757 1053.3 227.591 1054.09 231.692C1053.72 238.085 1054.46 252.481 1054.4 259.677C1054.36 264.409 1053.91 288.238 1054.44 291.534C1053.81 308.114 1054.38 324.747 1053.92 341.335C1053.87 343.213 1053.88 345.06 1054.12 346.926C1053.61 348.814 1053.99 348.696 1052.76 349.53C1048.1 342.578 1056.69 231.289 1048.61 226.224C1048.28 227.281 1049.06 249.064 1049.04 252.323C1048.94 272.361 1048.96 292.762 1048.74 312.78C1048.61 324.947 1049.49 343.525 1047.73 354.856C1045.27 342.899 1046.45 325.234 1046.34 312.599C1046.09 283.746 1048.25 252.271 1045.56 223.627C1042.43 241.894 1045.98 337.466 1041.78 343.586C1036.78 337.058 1038.94 267.621 1038.32 255.894C1037.97 249.214 1039.18 234.079 1037.61 226.685L1037.08 226.493C1036.34 234.71 1036.7 247.584 1036.75 256.092L1036.95 305.739C1036.93 313.454 1036.74 321.028 1035.94 328.705C1035.25 335.286 1037.14 338.349 1039.83 344.25C1042.13 348.723 1046.24 356.811 1052.41 355.516C1055.63 353.4 1055.27 351.839 1055.18 348.211ZM904.485 342.446L903.49 343.364C901.36 339.876 901.313 339.159 897.202 339.281C896.392 340.919 897.784 368.037 904.089 365.911C907.979 361.273 908.184 356.587 906.084 351.126L908.572 351.006C909.12 349.714 909.609 348.397 910.039 347.061C911.289 343.246 912.325 341.22 910.486 337.597C906.031 334.699 904.353 338.304 904.485 342.446ZM909.915 402.512C910.618 406.038 911.668 408.736 914.298 411.255L915.087 411.305C915.315 409.128 915.85 406.651 914.832 404.629C913.481 403.056 911.854 402.895 909.915 402.512ZM881.061 352.425C880.049 354.909 879.823 356.359 880.855 358.891C882.65 363.294 886.44 367.447 889.3 371.222L897.518 372.705C898.299 369.002 898.024 367.144 895.944 363.954C892.715 359.001 886.772 354.074 881.061 352.425ZM910.088 357.033L913.494 365.873L918.985 361.447C924.411 357.003 925.335 345.722 926.68 339.066C922.766 338.296 918.752 337.284 914.756 337.225C913.129 343.807 911.409 350.381 910.088 357.033ZM1071.95 344.402C1071.1 339.793 1070.17 335.296 1070.44 330.589C1070.61 327.621 1073.15 317.772 1072.81 316.145C1068.17 318.887 1063.52 322.124 1062.13 327.702C1061.3 331.015 1061.94 334.434 1063.71 337.334C1064.67 338.89 1065.9 340.467 1067.27 341.68C1068.81 342.599 1070.35 343.612 1071.95 344.402ZM896.443 382.395C898.441 378.304 900.637 374.408 905.187 372.748C907.633 371.85 910.339 371.987 912.682 373.126C916.719 375.053 919.003 378.892 920.369 382.985C920.552 383.534 920.727 384.085 920.894 384.638C921.194 389.107 918.336 392.583 918.539 396.488C920.096 396.469 921.296 396.079 922.41 394.895C923.981 393.225 924.179 390.553 923.994 388.391C923.576 383.539 921.395 378.497 918.808 374.431C916.563 373.299 914.013 371.172 911.733 370.41C906.992 368.828 905.872 371.99 900.86 367.982C900.559 370.067 900.511 372.257 898.948 373.824C896.561 375.26 893.616 374.586 891.001 374.139L896.443 382.395ZM1085.29 440.484C1099.88 440.712 1116.12 433.448 1126.5 423.354C1135.5 414.604 1145.7 397.545 1145.96 384.708C1145.98 383.722 1146.1 382.774 1145.42 382.029C1140.78 382.485 1132.79 382.408 1128.96 384.96C1130.21 386.947 1130.95 387.779 1130.37 390.241C1126.17 408.139 1117.09 423.039 1101.18 432.751C1096.13 435.838 1090.72 438.151 1085.29 440.484ZM894.786 384.224C892.487 385.426 889.526 386.572 887.956 388.692L888.057 389.693L889.235 390.471C891.328 390.675 892.273 391.124 893.974 389.57C894.786 388.829 895.51 387.488 895.486 386.366C895.469 385.572 895.378 384.757 894.786 384.224ZM890.907 355.965C892.977 357.83 895.025 359.73 897.126 361.561C896.382 354.801 896.09 347.388 893.423 341.067C889.425 343.65 885.422 346.493 882.151 349.98C885.246 351.814 888.203 353.568 890.907 355.965ZM931.035 412.934C933.084 418.474 934.936 424.213 937.311 429.616C940.331 426.661 943.031 424.261 946.864 422.374C938.039 432.406 930.565 436.222 917.525 438.556C912.606 438.621 906.259 439.346 902.446 435.506C899.647 432.687 899.554 428.307 899.643 424.587C899.69 422.643 899.916 420.73 900.206 418.807C897.813 421.754 894.089 427.721 890.005 428.177C888.536 428.341 887.03 427.721 885.953 426.739C884.418 425.339 883.151 423.234 882.064 421.464C883.944 416.883 885.855 412.315 887.798 407.76C883.956 409.741 880.429 412.138 875.952 410.799C874.111 410.249 872.556 409.039 871.638 407.344C870.309 404.892 870.298 401.736 871.115 399.115C872.79 393.745 876.269 391.992 881.026 389.6C876.969 388.521 873.514 386.795 870.029 384.467L866.973 399.99C872.199 415.645 879.507 429.693 894.923 437.362C905.121 442.435 917.937 443.452 928.756 439.798C940.147 435.951 949.012 426.991 954.259 416.342C961.797 401.043 962.696 382.558 957.108 366.488C952.611 353.559 943.515 341.753 931.042 335.719C923.638 332.173 915.423 330.658 907.241 331.331C893.834 333.782 882.565 340.04 874.742 351.41C866.176 363.861 863.468 381.101 866.243 395.854C866.264 395.968 866.288 396.081 866.311 396.195C868.372 377.398 869.973 355.93 885.911 343.221C895.444 335.62 907.579 333.77 919.454 335.137C922.356 335.471 925.517 335.881 927.473 338.256C929.372 343.324 926.682 350.821 925.184 355.847C929.437 351.837 933.737 347.157 938.941 344.398C949.191 351.378 954.775 364.512 956.995 376.379C959.12 387.741 958.024 405.929 951.359 415.727C949.975 417.762 948.001 419.523 945.496 419.926C940.953 420.656 934.678 415.427 931.035 412.934ZM388.396 428.774C386.763 429.319 378.522 431.79 377.917 432.626C382.15 432.366 385.483 431.531 389.477 430.065C393.079 428.586 396.488 426.676 399.63 424.375C409.731 417.007 417.961 406.366 419.918 393.8C410.833 407.504 403.284 420.928 388.396 428.774ZM908.482 401.276C913.109 398.514 916.792 395.698 918.234 390.201C919.122 386.819 918.668 383.031 916.814 380.043C915.033 377.173 911.81 375.24 908.527 374.598C906.986 374.296 905.29 374.233 903.727 374.362L904.093 375.737C908.973 377.73 913.799 379.546 916.051 384.854C916.786 386.585 916.906 388.403 916.154 390.152C914.105 394.911 907.094 396.756 905.848 400.027L906.401 400.934L908.482 401.276ZM899.659 415.357C899.667 412.336 900.324 405.368 898.53 403.005C896.054 403.772 893.767 404.634 891.443 405.783C888.979 410.443 884.296 417.207 885.856 422.637C886.243 423.986 887.283 425.066 888.177 426.109C888.355 426.317 888.542 426.517 888.729 426.716C893.015 425.679 897.309 418.886 899.659 415.357ZM1094.02 281.435C1099.24 275.275 1099.96 270.735 1101.44 263.106C1102.01 258.547 1102.2 252.958 1101.43 248.428C1100.78 243.765 1099.97 236.989 1095.63 234.194L1095.06 234.588C1102.83 248.053 1102.7 267.88 1093.16 280.464C1089.26 282.644 1085.34 281.503 1083.5 277.225C1078 264.456 1079.94 248.605 1085.75 236.281C1086.8 234.059 1089.79 232.012 1090.08 229.569C1087.51 227.364 1084.61 230.981 1082.76 232.408C1072.52 240.322 1072.13 296.304 1094.02 281.435ZM1012.7 291.429C1030.67 285.693 1030.59 260.999 1026.62 245.834C1025.14 240.215 1020.9 235.426 1014.86 234.864C1015.89 235.733 1021.03 239.757 1021.52 240.471C1029.58 252.168 1029.64 281.183 1015.09 288.235C1013.71 288.901 1012.11 289.127 1011.23 290.522C1012.06 291.401 1011.58 291.124 1012.7 291.429ZM938.513 255.65C938.304 252.94 938.82 248.706 938.084 247.067C936.438 246.441 936.536 246.699 934.695 246.954C930.992 247.467 920.64 249.834 920.772 254.526C922.815 255.836 922.672 255.411 925.469 255.501L938.513 255.65ZM1071.31 354.578C1073.2 357.339 1079.05 362.825 1078.62 366.131C1078.4 367.808 1077.28 369.718 1076.65 371.305C1082.76 370.907 1109.88 369.098 1113.31 365.534C1112.69 362.611 1109.92 360.799 1107.52 359.237C1106.99 358.894 1106.45 358.585 1105.88 358.311C1097.72 355.096 1087.24 351.87 1078.5 351.313L1077.78 352.01C1078.16 356.661 1086.59 363.962 1083 368.557C1080.24 366.577 1077.07 349.969 1072.43 347.211L1072.07 346.993L1071.31 354.578ZM1088.99 315.936C1087.44 314.475 1084.24 312.026 1082.07 312.514C1071.32 314.933 1071.34 333.438 1073.5 340.946C1084.78 361.017 1101.07 333.443 1088.99 315.936ZM937.08 398.57C940.495 401.927 945.94 408.629 950.624 409.682C951.291 409.232 951.625 409.097 951.984 408.363L954.561 400.71C948.876 400.066 942.623 399.884 937.08 398.57ZM1050.98 405.621C1053.37 407.248 1055.74 409.009 1058.39 410.186C1067.53 413.303 1076.74 413.222 1085.51 408.901C1091.28 406.06 1101.85 397 1103.9 391.11C1104.07 390.65 1104.16 390.192 1104.22 389.708C1103.24 389.343 1102.43 389.407 1101.39 389.465L1088.36 390.771C1084.38 397.445 1079.88 401.098 1072.21 403.039C1065.52 404.733 1057.88 405.571 1050.98 405.621ZM1042.45 236.312C1042.6 232.572 1043.04 228.91 1041.76 225.425L1041.02 225.091C1039.52 228.844 1040.19 232.083 1040.54 236.138C1040.58 256.332 1041.18 279.278 1040.65 299.22C1040.63 301.479 1040.34 305.022 1041.22 306.959C1042.16 305.157 1041.95 301.212 1041.92 298.98C1041.54 278.328 1042.97 257.095 1042.45 236.312ZM249.019 362.056C250.035 358.213 252.538 352.068 250.311 348.286C249.236 346.461 247.479 345.673 245.577 344.938C244.141 349.197 242.479 354.423 244.523 358.755C245.123 360.028 246.069 361.143 247.425 361.623C247.945 361.808 248.481 361.935 249.019 362.056ZM1025.26 181.502C1019.79 179.194 1014.07 176.232 1008.18 176.268C1011.07 179.422 1017.72 184.893 1017.53 188.613C1017.42 190.462 1017.27 192.308 1017.09 194.15L1017.9 194.261C1018.85 192.014 1019.1 191.585 1019.09 189.154C1018.87 186.077 1018.53 186.865 1019.73 184.268C1021.46 182.812 1023.16 182.311 1025.26 181.502ZM897.34 401.594C898.443 399.891 898.908 399.39 899.008 397.318C898.102 395.759 897.05 395.129 895.546 394.218C894.824 396.131 893.346 398.963 893.859 400.965C895.18 401.911 895.77 401.68 897.34 401.594ZM724.374 189.397C713.702 192.74 698.594 197.914 687.973 199.64C682.317 192.944 663.032 144.801 668.073 139.297C675.054 136.013 707.106 137.199 716.579 137.915C731.644 139.055 765.145 136.397 778.071 141.018C786.81 150.979 795.742 177.775 796.003 191.661C796.026 192.867 797.75 193.606 798.543 193.96L799.95 193.569C801.235 191.182 800.629 189.515 799.854 186.978C794.787 170.396 787.92 153.623 781.526 137.573C770.851 135.506 664.6 132.787 657.484 135.453C655.587 138.337 665.406 170.095 667.227 176.631C671.728 193.105 676.125 209.607 680.418 226.137C688.909 226.29 740.151 228.465 744.355 226.416C738.597 221.627 697.855 229.553 696.098 211.383C694.852 198.502 724.963 196.007 730.462 193.214C739.425 192.045 746.213 191.375 755.224 191.223C761.598 191.115 773.536 191.665 779.196 190.615C774.996 190.016 770.773 189.584 766.539 189.321C764.752 180.292 762.034 175.152 752.376 173.268C738.569 170.575 733.038 183.82 724.374 189.397ZM1002.04 280.896L1003.19 281.775L1004.08 281.376C1005.65 267.734 998.404 249.515 1010.09 237.31C1011.06 236.299 1011.69 236 1011.18 234.925L1010.8 234.783C994.702 240.44 994.289 268.365 1002.04 280.896ZM437.612 243.468L437.578 246.172C441.184 248.942 451.299 246.33 456.052 246.024L456.394 245.397C453.34 243.909 441.44 243.444 437.612 243.468ZM350.923 217.831C352.493 220.294 354.485 223.726 356.503 225.714C371.012 235.608 392.791 232.873 409.408 230.527C415.139 229.718 425.567 226.496 428.933 221.585C429.911 220.183 430.28 218.445 429.957 216.766C428.359 208.612 417.366 207.582 410.925 205.714C393.533 200.67 371.083 199.582 357.77 186.003C349.401 196.378 349.803 206.12 354.949 217.831C378.598 233.728 408.044 221.799 413.705 226.113C410.031 229.213 385.868 228.844 379.697 228.254C368.691 227.2 359.669 224.759 350.923 217.831ZM904.262 409.058C905.329 407.336 906.255 406.081 906.033 403.973C905.333 402.286 903.737 401.432 902.124 400.725C901.844 403.695 901.143 407.16 901.918 410.068L902.743 410.624L904.262 409.058ZM908.278 407.148C906.281 409.944 904.11 412.732 902.307 415.653C901.995 421.036 900.343 429.83 904.191 434.182C905.079 435.186 906.103 435.518 907.337 435.922C907.846 436.088 908.348 436.263 908.861 436.416C910.385 436.094 911.361 436.2 912.289 434.814C915.046 430.701 914.278 421.071 914.398 416.055C912.415 413.077 910.508 409.943 908.278 407.148ZM941.878 246.345C939.982 251.287 938.947 253.322 943.72 256.542C945.43 251.993 946.67 249.278 941.878 246.345ZM396.461 196.59C401.563 198.063 406.749 199.222 411.993 200.063C425.294 202.286 440.856 201.658 442.078 218.886C446.784 218.585 451.488 218.246 456.189 217.87C475.631 216.22 495.882 214.353 515.365 214.239C512.668 206.948 509.709 198.73 502.058 195.299C495.279 192.26 465.454 193.17 456.8 194.021C440.015 194.74 412.182 193.695 396.461 196.59ZM916.795 415.624C920.457 421.618 924.08 427.637 927.663 433.679L933.01 431.64C934.062 430.555 934.336 430.382 934.307 428.807C934.226 424.257 930.107 413.452 926.772 410.321C924.212 407.917 920.813 406.23 917.761 404.525C917.512 408.214 917.401 411.974 916.795 415.624ZM1117.71 365.755C1121.82 365.32 1125.9 364.771 1129.98 364.111L1146.57 361.33C1145.1 354.262 1143.41 347.351 1141.17 340.478L1133.83 340.626C1127.42 343.446 1123.2 346.944 1120.6 353.658C1119.13 357.489 1118.37 361.712 1117.71 365.755ZM513.268 397.353C520.964 408.692 529.29 415.454 543.014 418.048C558.631 421 574.398 418.208 587.868 409.812C591.234 406.789 594.556 403.772 597.683 400.5C569.526 400.033 541.381 398.984 513.268 397.353ZM1022.08 411.489C1026.49 418.239 1031.24 424.054 1037.46 429.23C1048.64 437.379 1061.45 442.69 1075.51 440.537C1091.98 438.013 1107.32 428.39 1117.11 414.976C1123.18 406.672 1126.7 397.386 1128.53 387.313C1125.25 387.33 1121.82 387.143 1118.56 387.522C1114.9 388.133 1111.2 388.482 1107.55 389.066C1101.17 399.958 1092.57 410.074 1079.88 413.451C1070.85 415.822 1061.25 414.58 1053.12 409.987C1051.29 408.932 1049.47 407.697 1047.84 406.365C1039.15 407.542 1030.55 409.253 1022.08 411.489ZM916.199 371.792C917.941 371.109 919.099 370.785 919.961 368.957C920.729 367.326 920.463 365.24 920.264 363.518C918.428 364.808 915.894 366.165 915.06 368.317C915.053 369.813 915.377 370.555 916.199 371.792ZM916.526 420.398C915.769 425.759 915.32 431.088 914.948 436.484C917.997 436.021 921.061 435.604 924.099 435.069L924.807 434.199C923.937 429.917 919.733 423.327 916.526 420.398ZM951.205 364.419C950.165 362.151 948.514 357.851 946.408 356.794C945.713 357.166 942.671 358.827 942.129 358.987L945.696 354.337C943.503 351.725 941.474 349.132 938.878 346.915C933.925 351.21 929.015 355.555 924.149 359.948C923.035 363.506 921.692 366.261 923.059 369.732C927.226 373.675 932.142 369.35 935.414 366.095L937.498 366.722C937.949 367.334 938.078 367.306 938.768 367.742C942.445 367.368 947.54 365.571 951.205 364.419ZM789.463 195.298C779.813 193.881 770.066 193.224 760.313 193.336C742.943 193.696 725.196 195.095 708.857 201.426C703.231 203.606 694.613 210.427 700.834 216.184C705.585 220.581 720.48 221.776 726.718 222.311C733.163 222.407 739.851 222.601 746.277 222.491C757.749 206.918 770.566 199.991 789.463 195.298ZM1023.35 200.46C1023 196.713 1015.8 197.278 1013.01 197.609L1012.91 198.936C1015.14 200.635 1020.4 200.425 1023.35 200.46ZM547.234 212.719C551.076 212.462 555.222 211.412 556.1 206.986C555.044 205.591 555.607 206.036 553.412 205.558C550.631 206.333 546.847 207.112 544.628 208.794C543.677 211.317 545.038 211.591 547.234 212.719ZM999.263 239.847C983.942 249.374 974.965 259.224 990.785 274.776L997.855 279.704C995.498 270.776 994.359 266.404 995.082 257.136C995.434 252.62 999.65 241.914 999.263 239.847ZM1078.07 234.844C1068.22 239.934 1061.8 244.479 1059.12 255.865C1061.49 265.192 1064.09 268.528 1071.07 275.085C1073.72 277.294 1075.51 278.658 1078.37 280.606C1071.87 264.631 1071.35 256.686 1076.87 240.47C1077.31 239.157 1078.32 236.107 1078.07 234.844ZM1089.55 234.096C1085.15 241.499 1083.06 248.21 1082.55 256.927C1082.16 263.483 1081.99 278.201 1090.69 279.522C1099.43 270.162 1101.97 239.592 1089.55 234.096ZM746.789 225.192C747.452 226.26 747.808 227.323 749.236 227.411C752.796 227.629 756.847 227.602 760.387 227.659C767.78 227.798 775.171 228.01 782.559 228.293C823.712 229.57 864.873 230.545 906.04 231.219C921.518 231.55 956.568 233.474 970.428 231.291L970.804 230.669C966.939 228.679 848.792 227.17 834.15 226.777L781.215 225.498C771.643 225.244 755.958 224.451 746.789 225.192ZM768.582 234.478C788.546 244.332 798.996 252.241 806.734 274.443C809.143 281.353 809.855 288.944 812.249 295.501C815.069 294.444 817.179 293.781 819.693 292.052C829.414 274.42 806.127 248.555 791.181 240.683C784.112 236.959 776.666 234.349 768.582 234.478ZM1012.58 237.967C999.033 256.707 1009.55 279.025 1005.81 284.725C1003.25 285.053 999.98 283.113 997.586 281.926C999.228 283.352 1005.55 289.249 1007.09 289.417L1007.32 289.096L1007.74 288.812C1010.44 287.009 1012.55 286.849 1014.95 285.572C1028.32 278.445 1028.99 241.693 1012.58 237.967ZM1030 223.916C1023.46 224.719 1009.85 226.215 1005.51 231.542L1005 233.299C1009.31 234.881 1020.21 225.74 1027.54 242.658C1034.19 258.016 1032.72 292.484 1010.84 293.868L1016.14 300.709C1021.51 307.973 1030.45 322.4 1033.99 330.715C1034.54 321.093 1035.39 226.961 1033.12 223.827C1031.85 223.756 1031.24 223.65 1030 223.916ZM356.961 279.411C305.26 292.647 323.948 336.35 299.476 364.227C307.796 362.611 310.004 362.584 318.407 363.681C318.733 359.157 319.014 354.631 319.248 350.102C320.456 321.141 339.296 284.526 372.787 285.715C378.503 285.918 382.934 287.334 388.35 288.972C379.762 281.561 368.113 278.775 356.961 279.411ZM626.433 199.522C620.44 200.167 613.838 200.696 608.029 202.128C610.881 204.399 615.267 206.987 613.07 210.993C608.042 212.591 606.185 207.535 604.665 203.796C591.244 199.841 572.078 200.524 558.884 204.981C557.933 208.271 557.405 211.349 554.939 213.691C555.998 214.34 574.043 213.674 577.344 213.698C606.69 213.775 637.042 214.839 666.03 210.749C652.361 199.952 643.908 198.854 626.433 199.522ZM672.916 208.553C669.444 211.185 665.289 213.348 660.876 213.947C632.583 217.793 603.09 215.95 574.616 216.214C563.149 216.321 551.26 215.438 540.234 216.829C539.912 219.476 539.008 223.888 540.013 226.135C541.493 227.574 541.309 227.502 543.925 227.487C544.293 227.482 544.661 227.47 545.029 227.451C585.1 225.358 637.593 223.932 677.949 226.075C677.327 223.509 674.359 209.526 672.916 208.553ZM752.969 235.155C701.601 240.048 687.131 318.442 721.926 348.814C727.751 346.085 731.443 344.097 736.403 339.9C719.385 320.871 714.997 302.023 724.951 278.031C731.173 267.927 738.028 258.975 750.324 256.007C758.337 254.102 766.78 255.52 773.731 259.935C789.333 269.665 794.699 286.811 794.959 304.221C800.344 301.979 805.73 299.883 810.657 296.72C809.077 292.494 807.171 286.254 806.568 281.755C803.694 260.346 776.431 231.172 752.969 235.155Z"/><path fill="#010101" fill-opacity="0.98823529" d="M368.93 308.732C375.578 308.202 382.891 310.753 388.332 314.537C399.686 322.432 406.031 336.396 408.405 349.66C411.265 365.643 408.962 383.341 399.471 396.845C393.408 405.47 385.467 410.384 375.144 412.198C368.825 412.909 361.882 410.698 356.553 407.317C345.535 400.326 338.877 387.307 336.181 374.877C332.608 358.399 334.679 340.14 343.969 325.806C350.117 316.32 357.911 311.12 368.93 308.732ZM377.073 409.78C387.593 406.731 395.021 400.734 400.312 391.116C408.069 377.017 409.113 358.193 404.601 342.905C401.314 331.765 394.693 320.415 384.199 314.722C378.78 311.781 373.159 310.974 367.092 311.205C356.368 314.447 348.755 321.001 343.471 330.893C335.62 345.592 334.828 363.521 339.688 379.299C343.079 390.308 349.541 401.11 360.038 406.594C365.551 409.475 370.955 410.076 377.073 409.78Z"/><path fill="#010101" fill-opacity="0.98431373" d="M374.692 314.287C385.568 317.401 392.592 322.838 398.046 332.937C403.411 342.87 407.171 359.251 405.15 370.487C403.793 378.028 395.28 375.909 389.97 374.891C393.989 378.696 396.708 381.333 399.116 386.416C395.334 398.647 378.691 414.905 373.764 393.705L375.173 392.135L381.005 402.989C387.084 399.856 388.602 398.569 393.247 393.657L381.054 383.164L382.056 382.168C384.886 384.513 392.136 391.944 395.258 389.443C396.58 383.828 392.697 380.831 389.088 377.211C389.833 374.851 389.891 374.241 391.873 372.812C395.257 373.406 399.048 374.654 401.879 372.312C403.428 366.386 393.338 363.438 389.182 362.037C386.892 362.956 384.49 364.287 382.284 365.439L381.806 364.316C381.149 365.537 381.058 365.707 380.956 367.086L379.58 365.89L377.398 365.019C379.336 363.01 378.957 359.881 379.298 356.48C377.872 354.942 376.165 352.844 374.343 351.947L374.134 352.513L373.036 354.322C369.731 351.158 368.978 350.747 364.416 350.487C364.911 354.172 372.115 354.963 372.333 359.395C373.043 373.84 361.517 367.623 355.197 369.941L354.078 369.919C354.995 367.202 355.375 367.454 354.815 365.057C353.228 363.439 352.262 362.866 350.385 361.629C345.838 364.196 340.771 368.355 342.815 374.312C344.791 376.315 345.86 376.255 348.411 375.629L351.178 376.984C337.249 382.342 337.211 366.773 348.072 360.269C345.153 358.536 342.725 357.184 340.078 355.027C341.219 341.433 343.902 331.38 354.479 321.488C356.428 319.664 360.484 317.137 363.117 316.65C367.901 317.698 368.539 326.099 369.523 330.579C370.667 324.369 372.104 320.075 374.692 314.287ZM400.541 344.875C398.681 339.555 396.682 332.305 392.304 328.458C385.46 335.032 380.967 339.432 378.668 349.098L386.705 346.918C391.309 346.193 395.912 345.421 400.541 344.875ZM376.824 340.802C381.211 334.481 382.236 327.491 383.702 320.093C381.058 319.006 378.311 317.635 375.541 316.941C373.66 322.761 368.678 335.323 371.596 341.045C372.16 342.151 372.544 342.169 373.643 342.552C374.971 342.161 375.78 341.709 376.824 340.802ZM354.862 348.074C356.665 348.463 357.908 348.839 359.645 347.999C360.588 346.524 360.915 345.602 360.573 343.83C359.551 338.544 354.632 332.477 350.737 328.951C347.654 333.791 344.962 338.819 343.13 344.275L354.862 348.074ZM390.818 358.817C394.883 357.327 398.632 355.532 402.458 353.511C402.091 351.527 401.959 348.921 400.269 347.622C398.635 347.146 397.136 347.337 395.475 347.499C391.227 348.587 386.399 349.901 384.045 354C383.499 354.95 383.64 355.374 383.7 356.44C384.687 357.726 385.927 358.348 387.506 358.603C388.589 358.778 389.722 358.793 390.818 358.817ZM353.321 360.185C355.863 362.795 358.357 365.789 361.545 367.614C363.745 367.771 365.722 368.011 367.52 366.462C368.871 365.299 369.573 363.586 369.613 361.82C369.667 359.479 368.514 356.928 366.824 355.328C365.734 354.296 364.082 353.545 362.613 353.301C360.525 356.47 359.357 358.912 355.36 359.749L353.321 360.185ZM357.343 322.292L352.632 326.848L357.513 333.642L358.735 334.489C360.082 332.066 358.915 326.943 358.179 324.235C357.993 323.549 357.688 322.91 357.343 322.292ZM342.655 346.333C342.382 348.827 342.145 351.331 341.788 353.814C344.737 355.608 347.663 357.524 350.755 359.062L356.869 355.938L360.474 351.744C354.447 350.127 348.552 348.378 342.655 346.333ZM385.431 321.506C384.655 324.207 382.062 330.631 383.361 333.23C383.398 333.303 383.442 333.372 383.483 333.443C384.896 333.056 385.331 332.42 386.32 331.424L391.099 326.369C389.274 324.639 387.49 322.964 385.431 321.506ZM362.067 318.158C359.335 321.831 359.589 326.038 360.199 330.401C360.808 334.756 362.189 340.202 365.588 343.185C367.801 335.579 368.537 327.152 364.396 319.956C363.853 319.012 363.094 318.48 362.067 318.158Z"/><path fill="#F2F1F4" fill-opacity="0.0078431377" d="M357.343 322.292C357.688 322.91 357.993 323.549 358.179 324.235C358.915 326.943 360.082 332.066 358.735 334.489L357.513 333.642L352.632 326.848L357.343 322.292Z"/><path fill="#010101" d="M373.036 354.322L374.134 352.513C376.789 357.411 375.303 362.434 377.398 365.019L379.58 365.89L373.082 370.417C375.532 370.48 380.346 371.074 382 369.917C382.058 368.498 381.8 368.333 380.956 367.086C381.058 365.707 381.149 365.537 381.806 364.316L382.284 365.439C385.935 370.541 385.898 371.495 391.873 372.812C389.891 374.241 389.833 374.851 389.088 377.211C386.052 374.108 378.889 370.762 375.073 373.45C374.88 377.159 379.299 379.923 382.056 382.168L381.054 383.164C378.523 381.273 376.208 379.466 373.455 377.889L372.446 385.987L375.173 392.135L373.764 393.705L372.614 393.57L371.352 396.751C371.062 393.426 370.959 388.654 369.531 385.797L368.578 385.323C366.385 387.344 364.309 396.988 363.42 400.452C364.321 402.506 367.941 403.486 369.97 404.059L372.37 405.823C363.774 406.11 352.763 399.152 349.611 391.05C347.443 385.477 348.909 382.049 351.178 376.984L348.411 375.629C352.936 374.018 352.669 374.273 354.078 369.919L355.197 369.941L355.731 371.188C357.125 372.145 362.562 371.542 366.685 372.589C373.308 366.886 375.59 363.147 373.036 354.322ZM359.433 383.152C359.52 380.445 359.926 377.349 359.015 374.766L358.141 374.083C354.485 376.059 351.905 378.63 350.75 382.74C349.851 385.937 350.252 388.71 351.574 391.702L359.433 383.152ZM361.028 386.528L358.938 387.259C355.377 390.25 353.445 392.109 356.255 396.611C357.876 397.391 357.18 397.292 358.891 397.065L359.491 396.584L362.009 396.669C363.472 393.315 368.261 381.699 365.565 378.881L364.638 379.691L363.475 381.147C361.547 383.458 361.367 383.617 361.028 386.528Z"/><path fill="#010101" fill-opacity="0.98823529" d="M358.938 387.259L361.028 386.528C361.091 388.928 361.055 394.829 362.009 396.669L359.491 396.584C359.5 392.83 359.48 391.011 358.938 387.259Z"/><defs><linearGradient id="gradient_0" gradientUnits="userSpaceOnUse" x1="365.10464" y1="382.60284" x2="363.06638" y2="382.74387"><stop offset="0" stop-color="#FFFFFE" stop-opacity="0"/><stop offset="1" stop-color="#E4E3E2" stop-opacity="0.047058824"/></linearGradient></defs><path fill="url(#gradient_0)" d="M363.475 381.147L364.638 379.691C365.514 381.652 365.736 383.303 364.315 385.157C362.896 384.228 363.355 382.743 363.475 381.147Z"/><path fill="#F2F1F4" fill-opacity="0.011764706" d="M355.197 369.941C361.517 367.623 373.043 373.84 372.333 359.395C372.115 354.963 364.911 354.172 364.416 350.487C368.978 350.747 369.731 351.158 373.036 354.322C375.59 363.147 373.308 366.886 366.685 372.589C362.562 371.542 357.125 372.145 355.731 371.188L355.197 369.941Z"/><path fill="#010101" fill-opacity="0.98431373" d="M371.352 396.751L372.614 393.57L373.764 393.705C372.387 397.105 374.889 401.699 372.37 405.823L369.97 404.059C371.003 401.366 371.071 399.578 371.352 396.751Z"/><path fill="#010101" d="M756.932 260.095C765.78 261.078 764.192 266.258 763.741 273.462C773.317 257.974 779.164 267.643 785.683 279.319C790.452 287.861 792.454 300.194 790.016 309.669C788.328 316.229 781.464 312.923 777.369 314.847C777.376 315.982 777.504 316.53 777.713 317.651L776.657 318.417C773.683 318.938 769.812 317.659 766.776 316.905C767.338 320.043 767.528 323.636 767.78 326.844L760.813 322.014C760.611 324.469 760.51 328.958 759.44 330.962L758.522 330.735L756.894 327.996C755.718 325.607 755.006 323.593 752.647 322.532C747.979 325.232 750.878 338.41 744.219 338.246C735.653 338.82 734.866 326.911 732.525 324.627C725.45 317.723 720.809 314.711 733.403 304.74C729.235 302.558 725.881 301.172 725.191 295.991C724.232 288.796 728.978 279.215 733.079 273.563C738.936 265.491 747.298 261.524 756.932 260.095ZM748.219 291.127C739.858 300.202 741.677 316.561 755.732 313.246C760.075 308.924 760.256 307.612 761.53 301.806C759.492 293.937 757.255 290.162 748.219 291.127ZM782.368 278.245L781.014 276.74C780.58 274.985 779.097 272.771 777.381 272.126L774.812 272.307C774.832 270.203 774.85 269.884 773.999 267.898L772.907 267.096C768.007 268.31 762.478 278.607 763.204 283.393L764.191 284.612C767.885 284.873 769.624 282.066 771.815 279.266L773.906 279.264L773.787 280.02C774.998 280.514 775.431 280.592 776.354 281.479C775.866 281.688 775.382 281.907 774.904 282.137C771.409 283.817 767.548 287.193 770.062 291.219C775.994 295.046 782.369 288.783 786.378 285.068C785.252 282.706 783.765 280.465 782.368 278.245ZM751.948 318.418C754.459 317.597 756.894 316.768 759.464 316.134C766.964 307.299 767.252 300.529 761.795 290.199C752.938 284.806 752.047 288.429 744.717 285.107C744.86 289.169 742.93 291.712 740.965 295.125C743.216 294.866 749.168 282.784 759.867 292.181C766.282 297.815 764.271 305.818 759.402 311.648C756.238 315.437 752.774 316.173 748.37 317.251L747.113 320.717L748.173 322.33C749.957 321.857 750.622 320.218 751.948 318.418ZM740.949 334.539C742.718 335.288 743.157 335.723 745.062 335.237C746.558 333.849 746.895 332.152 746.985 330.183C747.128 327.045 746.342 322.466 744.838 319.7C744.363 319.497 743.814 319.182 743.311 319.09C740.524 320.369 736.755 321.759 735.722 324.967C735.183 326.64 735.486 328.211 736.336 329.707C737.375 331.536 739.313 333.222 740.949 334.539ZM752.673 274.329C753.83 276.587 754.94 279.346 756.961 280.769C758.278 280.653 757.796 280.939 758.57 280.149C762.074 275.777 764.507 267.219 759.352 262.929C758.635 262.332 755.778 262.33 754.765 262.333C754.214 266.776 753.627 269.948 752.673 274.329ZM743.759 281.82L749.207 284.54C750.677 280.464 750.603 278.516 750.73 274.224C748.759 270.657 747.47 266.976 743.655 265.827C741.225 269.845 741.291 272.148 742.429 276.786C742.848 278.47 743.291 280.149 743.759 281.82ZM732.916 291.743C735.95 288.75 732.81 285.203 730.742 282.115C729.71 284.316 728.17 286.891 728.442 289.217C729.841 291.17 730.27 291.051 732.916 291.743ZM741.552 282.855C738.318 281.009 736.093 279.583 732.382 278.764C734.465 285.5 734.714 290.322 742.788 290.572C742.449 288.378 742.027 284.919 741.552 282.855ZM738.538 270.414C737.134 271.827 734.974 273.604 734.766 275.49C735.956 277.704 735.868 277.152 738.429 278.567L739.936 278.583C740.927 276.622 739.944 271.573 738.538 270.414ZM742.301 318.161C743.919 316.882 744.609 316.596 745.264 314.597C744.998 312.368 743.101 310.689 741.657 309.083C740.644 311.535 738.837 314.698 739.195 317.381L740.043 318.26L742.301 318.161ZM777.215 304.946L777.049 303.898C774.328 302.274 772.732 302.025 769.703 301.307C770.585 304.187 770.07 304.064 772.033 305.755C774.152 305.951 775.18 305.532 777.215 304.946ZM769.096 308.988C767.426 310.191 766.649 310.511 765.851 312.446C766.505 313.886 767.068 314.518 768.62 315.064C769.944 315.531 771.419 315.773 772.796 316.054L774.032 315.814C774.173 314.063 772.775 312.329 771.671 311.07C770.953 310.252 770.137 309.359 769.096 308.988ZM781.998 305.721C779.516 306.281 776.698 306.62 774.709 308.306L774.26 309.552C775.641 311.419 777.438 311.922 779.633 312.559C781.93 312.461 784.655 312.621 786.299 310.728C787.215 309.674 787.146 309.46 787.013 308.166C785.706 306.528 783.996 306.049 781.998 305.721ZM727.782 293.113C727.283 295.527 726.844 295.903 728.114 298.312C729.281 300.525 733.875 303.249 736.301 302.508C737.708 300.404 738.597 299.451 738.623 296.961C736.704 292.192 732.224 292.928 727.782 293.113ZM772.761 299.589C775.69 300.948 779.427 302.905 782.519 303.462C785.902 302.656 789.545 302.224 789.012 297.997C787.524 295.892 786.317 295.149 783.721 294.708C782.343 294.46 780.943 294.349 779.542 294.377C776.877 295.544 774.906 297.616 772.761 299.589ZM735.74 306.103C732.941 307.921 729.415 309.945 728.572 313.418C727.826 316.491 729.726 319.14 731.333 321.568L731.81 322.282C735.041 319.779 738.362 316.332 738.936 312.081C739.118 310.733 738.792 309.56 738.375 308.29C737.529 307.369 736.859 306.678 735.74 306.103Z"/><path fill="#F2F1F4" fill-opacity="0.0078431377" d="M744.717 285.107C752.047 288.429 752.938 284.806 761.795 290.199C767.252 300.529 766.964 307.299 759.464 316.134C756.894 316.768 754.459 317.597 751.948 318.418C750.622 320.218 749.957 321.857 748.173 322.33L747.113 320.717L748.37 317.251C752.774 316.173 756.238 315.437 759.402 311.648C764.271 305.818 766.282 297.815 759.867 292.181C749.168 282.784 743.216 294.866 740.965 295.125C742.93 291.712 744.86 289.169 744.717 285.107Z"/><path fill="#F2F1F4" fill-opacity="0.0078431377" d="M730.742 282.115C732.81 285.203 735.95 288.75 732.916 291.743C730.27 291.051 729.841 291.17 728.442 289.217C728.17 286.891 729.71 284.316 730.742 282.115Z"/><path fill="#010101" fill-opacity="0.98039216" d="M773.787 280.02C775.461 279.634 779.294 277.59 781.014 276.74L782.368 278.245C781.371 278.79 777.153 281.189 776.354 281.479C775.431 280.592 774.998 280.514 773.787 280.02Z"/><path fill="#010101" fill-opacity="0.96078432" d="M774.812 272.307L777.381 272.126C775.677 274.966 774.965 276.056 773.906 279.264L771.815 279.266C772.857 277.301 773.941 274.425 774.812 272.307Z"/><path fill="#F2F1F4" fill-opacity="0.011764706" d="M724.374 189.397C733.038 183.82 738.569 170.575 752.376 173.268C762.034 175.152 764.752 180.292 766.539 189.321C770.773 189.584 774.996 190.016 779.196 190.615C773.536 191.665 761.598 191.115 755.224 191.223C746.213 191.375 739.425 192.045 730.462 193.214L729.371 192.411L727.689 192.915C725.482 192.209 725.749 191.802 724.374 189.397ZM732.59 186.788C736.735 186.582 742.032 186.17 746.094 186.195C751.2 186.261 757.484 186.177 762.49 186.544C758.671 180.517 756.584 177.524 748.719 177.604C740.908 179.471 738.318 180.927 732.59 186.788Z"/><path fill="#010101" d="M746.108 175.65C750.391 175.377 753.449 175.502 757.511 177.131C761.658 178.795 764.996 183.793 762.888 188.136C759.995 189.408 751.737 188.699 748.281 188.576C744.314 188.52 731.139 190.417 729.584 187.655C730.356 182.573 741.67 177.184 746.108 175.65ZM732.59 186.788C736.735 186.582 742.032 186.17 746.094 186.195C751.2 186.261 757.484 186.177 762.49 186.544C758.671 180.517 756.584 177.524 748.719 177.604C740.908 179.471 738.318 180.927 732.59 186.788Z"/><path fill="#010101" fill-opacity="0.98431373" d="M1076.74 331.937C1077 324.723 1077.42 310.93 1088.27 316.611C1092.39 324.35 1094.9 345.211 1083.19 345.821C1078.05 343.824 1077.47 336.721 1076.74 331.937ZM1085.25 344.047C1088.83 338.403 1091.06 331.638 1089.56 324.896C1088.93 322.013 1087.38 318.914 1084.81 317.301C1084.3 316.983 1083.77 316.716 1083.23 316.457C1079.37 321.945 1077.7 329.766 1078.89 336.435C1079.27 338.544 1080.17 341.473 1081.97 342.823C1082.91 343.529 1084.1 343.887 1085.25 344.047Z"/><path fill="#F2F1F4" fill-opacity="0.023529412" d="M1039.83 344.25C1037.14 338.349 1035.25 335.286 1035.94 328.705C1036.74 321.028 1036.93 313.454 1036.95 305.739L1036.75 256.092C1036.7 247.584 1036.34 234.71 1037.08 226.493L1037.61 226.685C1039.18 234.079 1037.97 249.214 1038.32 255.894C1038.94 267.621 1036.78 337.058 1041.78 343.586L1039.83 344.25Z"/><path fill="#F2F1F4" fill-opacity="0.015686275" d="M1014.86 234.864C1020.9 235.426 1025.14 240.215 1026.62 245.834C1030.59 260.999 1030.67 285.693 1012.7 291.429C1011.58 291.124 1012.06 291.401 1011.23 290.522C1012.11 289.127 1013.71 288.901 1015.09 288.235C1029.64 281.183 1029.58 252.168 1021.52 240.471C1021.03 239.757 1015.89 235.733 1014.86 234.864Z"/><path fill="#F2F1F4" fill-opacity="0.035294119" d="M1088.99 315.936C1101.07 333.443 1084.78 361.017 1073.5 340.946C1073.88 340.15 1074.91 338.75 1075.45 337.969L1074.77 336.769C1075.07 333.406 1075.02 331.845 1074.83 328.541L1074.2 328.181L1075.9 327.546C1076.09 327.783 1076.64 331.38 1076.74 331.937C1077.47 336.721 1078.05 343.824 1083.19 345.821C1094.9 345.211 1092.39 324.35 1088.27 316.611L1088.99 315.936Z"/><path fill="#C7C7C9" fill-opacity="0.98039216" d="M1042.45 236.312C1042.97 257.095 1041.54 278.328 1041.92 298.98L1040.65 299.22C1041.18 279.278 1040.58 256.332 1040.54 236.138L1042.45 236.312Z"/><path fill="#C7C7C9" fill-opacity="0.16078432" d="M1055.18 227.096C1056.08 233.806 1055.67 251.736 1055.74 259.258C1055.84 269.656 1056.99 290.917 1055.72 300.722C1055.3 297.193 1055.53 288.489 1055.41 284.431C1054.5 285.621 1054.76 289.249 1054.44 291.534C1053.91 288.238 1054.36 264.409 1054.4 259.677C1054.46 252.481 1053.72 238.085 1054.09 231.692C1054.26 231.811 1054.53 231.742 1054.83 231.732L1055.18 227.096Z"/><path fill="#F2F1F4" fill-opacity="0.015686275" d="M1008.18 176.268C1014.07 176.232 1019.79 179.194 1025.26 181.502C1023.16 182.311 1021.46 182.812 1019.73 184.268C1018.53 186.865 1018.87 186.077 1019.09 189.154C1019.1 191.585 1018.85 192.014 1017.9 194.261L1017.09 194.15C1017.27 192.308 1017.42 190.462 1017.53 188.613C1017.72 184.893 1011.07 179.422 1008.18 176.268Z"/><path fill="#F2F1F4" fill-opacity="0.023529412" d="M1054.44 291.534C1054.76 289.249 1054.5 285.621 1055.41 284.431C1055.53 288.489 1055.3 297.193 1055.72 300.722C1055.71 305.475 1055.77 310.438 1055.48 315.164C1054.32 325.252 1055.74 337.668 1054.65 346.947L1054.12 346.926C1053.88 345.06 1053.87 343.213 1053.92 341.335C1054.38 324.747 1053.81 308.114 1054.44 291.534Z"/><path fill="#C7C7C9" fill-opacity="0.043137256" d="M1093.16 280.464C1102.7 267.88 1102.83 248.053 1095.06 234.588L1095.63 234.194C1099.97 236.989 1100.78 243.765 1101.43 248.428C1101.26 252.52 1101.11 259.054 1101.44 263.106C1099.96 270.735 1099.24 275.275 1094.02 281.435L1093.16 280.464Z"/><path fill="#F2F1F4" fill-opacity="0.0078431377" d="M437.612 243.468C441.44 243.444 453.34 243.909 456.394 245.397L456.052 246.024C451.299 246.33 441.184 248.942 437.578 246.172L437.612 243.468Z"/><path fill="#F2F1F4" fill-opacity="0.011764706" d="M794.637 305.889C804.532 305.14 805.431 299.642 816.585 297.151C810.435 301.352 804.157 305.365 797.761 309.183C797.71 308.167 797.621 307.511 797.469 306.505L794.637 305.889Z"/><defs><linearGradient id="gradient_1" gradientUnits="userSpaceOnUse" x1="1052.6458" y1="223.71892" x2="1049.9233" y2="226.03517"><stop offset="0" stop-color="#FEFCFD" stop-opacity="0"/><stop offset="1" stop-color="#FAF8FB" stop-opacity="0.031372551"/></linearGradient></defs><path fill="url(#gradient_1)" d="M1049.82 223.868C1049.63 222.996 1048.63 222.368 1047.89 221.757C1047.83 220.328 1047.83 220.279 1048.38 218.978L1049.72 218.532C1052.06 221.175 1053.95 223.721 1055.18 227.096L1054.83 231.732C1054.53 231.742 1054.26 231.811 1054.09 231.692C1053.3 227.591 1052.84 226.757 1049.82 223.868Z"/><path fill="#010101" fill-opacity="0.97254902" d="M940.435 381.214C943.975 379.15 950.805 376.164 954.714 374.307L956.023 376.413L955.333 376.779C951.004 378.207 944.766 380.686 941.018 383.241L940.435 381.214Z"/><path fill="#C7C7C9" fill-opacity="0.16078432" d="M656.495 399.322C660.447 399.258 665.18 399.052 669.065 399.145L672.921 400.491L656.276 400.414L656.495 399.322Z"/><path fill="#191A1B" fill-opacity="0.9137255" d="M942.129 358.987C942.671 358.827 945.713 357.166 946.408 356.794C943.589 359.693 939.665 363.476 937.498 366.722L935.414 366.095L942.129 358.987Z"/><path fill="#C7C7C9" fill-opacity="0.29019609" d="M1054.65 346.947C1055.74 337.668 1054.32 325.252 1055.48 315.164C1055.69 321.96 1056.03 342.018 1055.18 348.211L1054.65 346.947Z"/><path fill="#010101" fill-opacity="0.97254902" d="M904.485 342.446C906.079 345.091 907.324 348.163 908.572 351.006L906.084 351.126C905.523 348.82 904.303 345.669 903.49 343.364L904.485 342.446Z"/><path fill="#C7C7C9" fill-opacity="0.074509807" d="M389.477 430.065C385.483 431.531 382.15 432.366 377.917 432.626C378.522 431.79 386.763 429.319 388.396 428.774L389.477 430.065Z"/><path fill="#595458" fill-opacity="0.97647059" d="M656.276 400.414C654.337 400.518 649.273 400.565 647.689 399.715C650.117 398.861 653.817 399.231 656.495 399.322L656.276 400.414Z"/><path fill="#9A979D" fill-opacity="0.627451" d="M1040.65 299.22L1041.92 298.98C1041.95 301.212 1042.16 305.157 1041.22 306.959C1040.34 305.022 1040.63 301.479 1040.65 299.22Z"/><path fill="#C7C7C9" fill-opacity="0.10980392" d="M444.227 374.595C446.274 373.955 448.412 373.668 450.532 373.321L450.749 374.524L444.507 375.618L444.227 374.595Z"/><path fill="#9A979D" fill-opacity="0.40000001" d="M1101.43 248.428C1102.2 252.958 1102.01 258.547 1101.44 263.106C1101.11 259.054 1101.26 252.52 1101.43 248.428Z"/><path fill="#595458" fill-opacity="0.21960784" d="M1074.83 328.541C1075.02 331.845 1075.07 333.406 1074.77 336.769C1074.51 336.194 1074.59 336.41 1074.38 335.774C1073.49 333.038 1073.49 331.105 1074.83 328.541Z"/><path fill="#010101" fill-opacity="0.98431373" d="M189.497 213.063C191.442 211.654 196.928 207.42 198.847 206.885C200.075 208.562 199.487 210.19 200.27 211.689C204.742 220.258 209.448 231.952 198.749 238.356C189.72 243.762 183.202 245.301 174.723 252.436C173.965 259.015 172.565 274.641 165.084 276.906C154.683 274.347 169.436 255.705 173.003 251.804C173.633 241.545 174.416 230.76 167.191 222.315C163.359 217.837 157.888 216.645 153.552 221.192C148.361 226.694 146.984 233.62 145.713 240.808C141.286 236.356 135.794 232.349 129.237 232.274C125.529 232.196 121.944 233.602 119.279 236.18C116.718 238.698 115.309 242.159 115.383 245.749C115.573 261.043 135.602 272.445 148.039 277.314C159.572 281.83 189.865 287.04 189.966 303.282C189.116 302.449 185.951 298.043 185.004 296.857C179.353 289.78 174.891 288.601 166.94 285.69C156.512 282.877 146.566 279.868 137.074 274.604C128.895 270.069 121.404 264.607 116.644 256.41C108.005 242.238 117.478 226.244 134.358 231.211C138 232.283 140.919 233.999 144.104 236.261C145.908 230.329 149.968 218.909 155.829 217.174C174.557 211.63 175.747 240.046 175.553 249.329C195.455 234.217 212.211 241.458 196.964 210.044C193.931 211.664 192.938 212.227 189.497 213.063ZM164.282 277.498C169.191 272.423 172.131 263.736 172.151 256.728L171.787 256.158C167.046 261.916 161.373 269.64 164.282 277.498Z"/><path fill="#010101" d="M382.099 435.355C373.752 435.877 362.374 435.57 353.893 435.562L304.87 435.51L153.949 435.507L70.4368 435.544C62.0083 435.559 34.316 436.15 27.5137 434.634C30.297 433.293 339.304 432.891 362.207 433.665L362.921 434.629C368.057 435.132 378.501 434.309 382.099 435.355Z"/><path fill="#010101" fill-opacity="0.98431373" d="M350.608 148.091C366.266 148.332 366.957 159.427 360.782 171.126C365.214 167.619 370.601 160.973 374.575 158.627C388.379 150.479 399.554 165.747 413.922 163.252C422.565 161.751 426.294 154.333 429.612 153.301L429.6 154.444C405.73 182.949 392.286 146.956 373.578 162.111C352.985 178.793 353.154 181.61 349.615 150.278C349.615 150.277 350.542 148.237 350.608 148.091ZM359.928 169.283C361.789 165.008 363.578 160.107 361.777 155.448C360.939 153.296 359.256 151.581 357.12 150.701C355.24 149.918 353.636 149.893 351.633 149.87C352.191 154.959 352.784 167.817 355.715 170.947C357.946 171.109 357.615 170.778 359.928 169.283Z"/><path fill="#010101" fill-opacity="0.97647059" d="M296.923 163.61C308.996 164.163 306.087 171.414 301.136 178.38C303.439 179.88 308.096 182.727 309.155 185.106C307.371 184.977 305.686 183.778 304.111 182.855C302.673 181.825 301.188 180.556 299.476 180.24C299.011 181.523 300.631 188.584 300.931 191.313C298.365 185.094 293.192 173.808 293.805 166.842C293.951 165.179 295.546 164.519 296.923 163.61ZM301.455 176.043C305.208 168.839 304.135 165.834 295.731 165.318C295.517 169.119 295.704 172.979 297.856 176.243L299.368 177.097C300.213 176.768 300.744 176.626 301.455 176.043Z"/><path fill="#010101" fill-opacity="0.96862745" d="M310.812 158.701C323.001 157.809 323.007 165.527 316.195 173.271C320.356 176.161 322.611 177.71 325.574 181.778C323.185 180.506 321.3 179.271 319.052 177.801L313.547 173.481C314.771 177.735 315.307 181.628 315.995 185.993C313.269 180.396 306.314 164.275 310.812 158.701ZM317.613 169.779C318.719 167.433 319.304 166.567 319.108 164.016C317.166 160.468 314.841 160.48 311.013 160.472C311.109 163.945 311.076 168.115 313.428 170.825C315.523 171.665 315.788 171.448 317.613 169.779Z"/><path fill="#010101" fill-opacity="0.98039216" d="M266.635 174.57C273.148 181.777 278.273 191.16 280.247 200.693C277.936 196.757 275.729 192.761 273.628 188.71L268.355 178.564C269.116 182.754 270.559 190.55 268.582 194.376C264.735 192.201 261.626 187.199 259.171 183.57C260.229 187.796 263.832 201.107 263.112 204.678C260.025 202.14 256.67 182.021 255.816 177.504C261.156 182.619 263.441 186.04 267.601 192.108C267.244 186.264 266.922 180.418 266.635 174.57Z"/><path fill="#010101" fill-opacity="0.98431373" d="M213.379 200.195C219.431 203.646 224.777 220.574 218.214 225.588C210.307 227.344 206.309 212.834 204.165 206.942L204.043 206.237L204.604 205.584C207.784 208.586 210.048 220.814 216.827 224.803C218.722 224.767 218.002 225.064 219.479 223.549C221.372 217.189 215.226 207.56 213.379 200.195Z"/><path fill="#010101" fill-opacity="0.98039216" d="M223.196 194.7C225.594 194.676 228.46 194.497 229.126 197.213L229.39 197.21L224.422 196.751C222.67 197.629 223.271 197.107 222.169 198.783C223.158 205.529 248.76 211.842 230.925 220.575C228.234 219.577 226.68 218.717 225.688 215.907C227.044 215.547 232.982 221.767 235.327 213.955C233.112 206.455 213.857 206.456 223.196 194.7Z"/><path fill="#010101" fill-opacity="0.98431373" d="M340.614 151.261C342.291 150.971 342.678 151.059 344.375 151.295L344.381 151.668C342.148 153.126 339.175 153.802 336.577 154.555C337.158 157.426 337.666 159.958 338.461 162.794C339.809 163.811 341.989 163.546 343.831 163.569C342.627 164.744 340.26 165.354 338.577 165.932L338.643 166.335C339.106 169.104 339.579 173.593 341.891 175.24C344.525 174.632 345.41 174.48 348.097 174.387L348.349 174.847C345.469 176.697 342.466 177.328 339.176 178.246C337.39 170.152 336.264 161.431 334.425 153.023L340.614 151.261Z"/><path fill="#010101" fill-opacity="0.97254902" d="M281.629 168.592C287.021 174.113 293.049 184.512 296.304 191.636C292.496 188.603 291.988 186.897 289.425 184.606L289.102 183.948C288.084 179.596 285.79 176.847 283.152 173.385C283.164 176.479 283.262 179.664 283.322 182.765L281.756 183.125C281.196 178.299 281.153 173.427 281.629 168.592Z"/><path fill="#F2F1F4" fill-opacity="0.015686275" d="M166.94 285.69C174.891 288.601 179.353 289.78 185.004 296.857C185.951 298.043 189.116 302.449 189.966 303.282C189.467 303.478 188.037 304.006 187.649 304.229C183.635 298.092 183.297 296.977 176.912 292.868L176.656 292.015C173.444 291.332 168.374 289.162 166.012 286.908L166.94 285.69Z"/><path fill="#010101" fill-opacity="0.98431373" d="M328.355 154.322L328.918 154.461C328.93 155.961 328.345 157.23 328.486 158.645C329.056 164.382 330.249 171.492 332.323 176.858C332.637 177.669 334.209 177.69 335.166 177.84L335.297 178.575L331.71 180.379L329.655 180.471C328.795 178.859 329.723 175.818 329.376 173.026C328.811 168.497 327.168 163.005 325.861 158.519C325.9 158.654 323.472 156.72 323.179 156.469C324.185 155.318 326.757 154.796 328.355 154.322Z"/><path fill="#010101" fill-opacity="0.98823529" d="M241.736 186.752L242.465 187.494C241.647 189.191 239.862 189.737 238.055 190.632C240.726 197.082 244.524 205.133 245.442 211.9L244.94 212.035L243.536 209.54C241.743 204.94 238.578 196.639 236.289 192.047C236.072 191.612 233.814 192.819 231.976 192.802C233.149 190.569 239.276 187.924 241.736 186.752Z"/><path fill="#010101" d="M281.756 183.125L283.322 182.765C284.966 184.14 286.907 183.899 289.102 183.948L289.425 184.606C282.325 187.293 283.62 189.542 283.75 196.51C281.614 191.475 279.055 188.262 281.756 183.125Z"/><defs><linearGradient id="gradient_2" gradientUnits="userSpaceOnUse" x1="272.50394" y1="189.27806" x2="268.23071" y2="188.35779"><stop offset="0" stop-color="#FFFCFF" stop-opacity="0"/><stop offset="1" stop-color="#EEEDEE" stop-opacity="0.031372551"/></linearGradient></defs><path fill="url(#gradient_2)" d="M268.582 194.376C270.559 190.55 269.116 182.754 268.355 178.564L273.628 188.71C270.688 191.737 271.831 193.221 269.716 194.736L268.582 194.376Z"/><defs><linearGradient id="gradient_3" gradientUnits="userSpaceOnUse" x1="1033.7374" y1="375.72787" x2="1029.9918" y2="375.85669"><stop offset="0" stop-color="#0A0A0A" stop-opacity="0.94901961"/><stop offset="1" stop-color="black"/></linearGradient></defs><path fill="url(#gradient_3)" d="M1032.25 374.558L1034.89 376.562C1033.31 377.045 1032.59 377.177 1031.24 378.222L1029.94 376.197L1030.72 376.019L1032.25 374.558Z"/></svg>