<?xml version="1.0" encoding="utf-8" ?><svg xmlns="http://www.w3.org/2000/svg" xmlns:xlink="http://www.w3.org/1999/xlink" width="1024" height="1024" viewBox="0 0 1024 1024"><path fill="#171616" d="M572.999 433.771C568.008 424.657 562.705 416.062 555.508 408.839C536.029 389.51 514.33 376.219 511.764 346.3C509.226 316.709 512.852 288.811 516.204 259.471C518.977 234.99 522.023 210.541 525.341 186.128L530.779 146.855C531.89 138.921 534.426 115.396 538.857 109.734L540.055 109.597C541.264 110.258 542.233 110.636 542.431 112.32C543.756 123.627 542.67 138.066 542.295 149.267L538.169 248.006C537.582 260.794 533.573 306.875 539.174 315.1C540.443 315.883 540.365 315.984 541.817 315.883C547.947 312.416 550.296 269.053 551.216 260.655L562.566 151.108C563.165 145.147 565.353 108.794 569.743 107.695C573.3 111.119 572.061 129.219 571.999 134.58C571.923 147.791 571.669 161 571.237 174.205L568.854 261.777C568.581 271.162 564.875 312.641 572.789 316.286C575.233 316.321 577.565 313.796 577.962 311.541C580.542 296.872 581.37 281.699 582.716 266.837L590.286 175.193C591.852 155.499 593.356 135.238 596.263 115.689C596.656 113.042 596.995 110.486 599.114 109.008L600.195 109.212C603.157 112.042 602.07 123.891 602.03 128.194L601.996 153.366C601.947 188.521 601.15 223.678 600.679 258.831C600.568 267.098 598.916 304.419 602.27 310.521C603.389 312.556 605.335 314.545 607.753 314.874C608.499 314.976 609.155 314.846 609.744 314.391C611.48 313.051 611.952 310.533 612.234 308.475C614.327 293.189 613.781 277.336 614.49 261.921L618.707 181.544C619.22 171.314 621.016 113.762 626.095 109.818L626.906 110.18C630.699 115.154 629.986 134.506 630.3 141.877C631.548 168.984 632.47 196.106 633.067 223.236L635.08 280.786C635.858 300.733 636.383 320.68 635.865 340.662C635.629 349.738 634.001 359.775 630.527 368.188C623.468 385.283 608.237 394.363 595.736 406.989C587.739 415.065 581.886 423.634 576.599 433.693C593.973 471.807 589.92 520.805 582.931 561.034C581.198 571.01 577.065 583.522 576.795 593.327C576.72 596.054 579.639 606.645 580.453 609.752C582.633 617.962 584.76 626.187 586.832 634.425C594.794 666.329 602.241 698.358 609.17 730.502C611.335 741.001 615.855 762.409 616.641 772.36C617.463 775.184 617.792 778.089 618.21 780.996C621.205 801.781 623.348 822.266 622.989 843.302C622.562 880.095 612.731 897.513 579.891 913.264C601.892 915.651 631.064 914.38 653.89 914.423L810.362 914.051C824.062 914.172 837.762 914.208 851.462 914.159C857.011 914.139 877.93 913.108 881.443 915.737C879.65 917.921 851.509 917.048 846.866 917.044L783.529 917.009L575.527 915.958C571.266 915.902 559.954 918.707 554.857 919.49C540.627 921.675 522.677 923.081 508.47 922.912C496.403 922.769 448.992 920.992 440.72 915.33C440.493 914.191 440.472 913.754 439.979 912.714C436.092 912.93 433.368 914.304 429.579 914.799C428.926 914.588 415.847 914.142 413.925 913.969C416.705 913.453 420.852 913.207 423.861 912.777C438.559 910.865 454.776 904.45 463.797 891.791C482.038 866.192 476.545 827.509 473.378 798.161C471.511 780.869 468.421 764.092 465.91 747.191C458.84 699.616 450.676 652.242 448.166 604.151C446.936 581.036 446.427 557.767 450.468 534.861C453.211 522.373 462.601 511.054 460.644 497.703C460.214 494.774 458.511 492.71 455.316 493.574C454.754 496.358 458.674 500.667 455.672 503.002C447.317 509.5 430.909 505.964 421.858 503.551C412.636 501.092 401.099 496.05 400.375 485.462C399.238 468.815 399.132 452.042 398.986 435.358L397.863 367.02C396.981 319.436 396.71 271.843 397.052 224.252C397.089 200.426 396.87 176.183 397.627 152.428C398.474 145.192 397.311 132.665 403.449 127.661C411.594 121.02 420.495 133.542 423.51 139.889C431.037 155.737 436.275 172.541 440.993 189.37C457.03 246.574 467.475 305.489 464.826 365.072C463.863 386.77 460.658 408.192 458.337 429.762C457.62 436.52 453.601 470.885 457.627 475.881L458.37 475.87C461.404 472.579 464.491 455.382 465.497 450.341C477.511 392.359 481.096 332.947 476.14 273.942C472.696 233.882 458.639 143.103 426.239 116.228C422.655 113.254 418.298 110.76 413.477 111.383C407.881 112.107 404.432 116.449 401.126 120.532C401.383 115.508 402.347 112.699 407.086 110.322C426.378 100.646 442.527 128.712 449.061 142.59C458.437 162.505 464.156 184.949 469.009 206.343C485.916 282.734 485.124 361.669 470.888 438.385C467.806 455.067 464.513 473.596 458.915 489.652C460.345 491.48 461.584 493.125 462.511 495.277C464.192 499.235 464.643 503.606 463.805 507.824C462.487 514.7 457.686 522.076 455.506 528.979C451.145 542.787 450.37 561.479 450.436 576.048C450.579 607.645 453.736 639.569 457.965 670.839C461.131 693.582 464.469 716.301 467.977 738.994C473.945 777.231 487.825 845.872 473.345 881.407C467.216 896.446 455.921 906.029 441.13 912.199C445.348 913.789 454.69 915.58 459.493 916.337C493.592 921.711 532.029 920.699 565.779 913.908C554.763 910.367 546.73 905.875 538.822 897.427C531.449 888.766 528.325 881.687 525.142 870.877C510.681 813.731 537.991 718.151 553.384 661.424C559.511 638.844 565.933 613.96 573.008 591.695C559.289 550.625 555.549 474.265 572.999 433.771ZM527.987 868.823C530.929 879.875 535.227 888.364 542.891 896.842C553.052 905.485 559.828 909.405 572.99 912.376C610.045 900.414 619.647 874.855 620.472 838.679C620.055 823.321 618.732 808.002 616.511 792.8C615.377 784.543 613.785 776.042 612.809 767.861C611.559 763.705 610.005 753.334 609.09 748.509C606.863 737.1 604.54 725.711 602.122 714.341C593.658 675.823 584.382 637.489 574.301 599.362C567.987 619.152 561.082 645.208 555.633 665.325C541.265 718.372 513.747 816.117 527.987 868.823ZM431.508 483.635C427.526 484.228 424.881 484.457 421.511 486.847C418.554 493.41 440.63 493.824 444.625 493.522C447.441 493.307 450.467 493.23 452.823 491.672C455.148 485.129 435.537 483.369 431.508 483.635ZM574.725 429.986C580.693 419.217 586.023 411.903 594.747 403.227C605.384 392.648 619.439 383.656 626.246 370.035C631.695 359.129 633.095 344.382 633.231 332.345C633.44 313.732 632.658 295.052 631.983 276.445L628.445 172.788C627.945 158.64 627.686 144.494 626.811 130.362C626.569 126.47 626.495 122.593 626.569 118.692C624.428 126.574 623.394 151.001 622.879 159.794L617.544 263.495C616.747 279.173 617.019 294.479 614.77 310.098C613.211 320.923 602.166 320.35 599.292 311.743C596.644 303.815 597.133 292.897 597.25 284.42L598.422 199.763C598.917 175.215 600.087 144.643 598.893 120.458C595.952 137.022 594.663 160.344 593.256 177.643L585.543 269.087C584.359 282.238 583.799 295.501 582.023 308.558C581.29 313.944 578.844 320.183 572.174 318.552C569.992 318.003 568.127 316.59 567.007 314.639C565.753 312.434 564.987 307.969 564.963 305.392C564.774 285.595 565.518 265.471 566.204 245.713L568.569 165.699C568.759 159.982 569.797 130.026 568.593 126.57C567.757 129.683 567.803 133.188 567.381 136.457C566.306 144.793 565.588 153.152 564.662 161.527L553.986 264.945C552.451 279.356 551.832 294.07 549.078 308.253C548.159 312.98 545.83 320.851 539.599 319.32C533.305 317.774 533.123 306.515 533.151 301.532C533.275 279.317 534.659 257.081 535.737 234.896L538.719 160.263C539.005 154.168 540.672 120.499 539.749 115.852C537.044 124.404 535.624 135.019 534.316 143.967C532.385 157.674 530.534 171.392 528.764 185.12C525.106 211.698 521.763 238.318 518.734 264.974C515.697 291.481 508.239 343.959 521.5 367.754C534.716 391.469 561.751 402.151 574.725 429.986ZM574.578 438.297C560.565 475.062 563.354 517.825 568.867 556.004C569.609 561.147 572.443 579.574 574.162 583.679C574.874 583.621 574.634 583.781 574.978 583.393C584.872 539.061 593.41 483.799 575.441 439.496C575.275 439.085 574.874 438.648 574.578 438.297ZM406.935 128.892C402.911 132.195 401.985 134.467 401.556 139.77C399.263 168.138 399.943 197.207 399.933 225.695C399.583 271.299 399.863 316.905 400.773 362.5C401.428 402.368 401.758 442.232 402.988 482.099C403.51 499.018 429.569 502.85 442.436 503.699C447.099 503.995 452.618 502.536 454.599 497.881C452.971 493.079 428.447 501.45 417.625 490.619C416.421 483.402 422.668 481.115 428.672 480.57C438.118 479.712 448.945 481.513 456.759 487.131C457.568 484.837 458.146 483.25 458.708 480.857C455.737 478.974 454.098 477.539 453.252 474.042C449.005 456.485 459.87 397.325 461.131 374.503C464.793 308.26 453.857 244.584 435.198 181.133C431.417 168.272 422.805 136.821 411.307 129.913C409.979 129.116 408.487 128.734 406.935 128.892Z"/><path d="M525.142 870.877C525.897 870.455 527.238 869.382 527.987 868.823C530.929 879.875 535.227 888.364 542.891 896.842C540.959 896.951 540.687 896.969 538.822 897.427C531.449 888.766 528.325 881.687 525.142 870.877Z"/><path fill="#171616" d="M412.784 885.604C420.718 893.24 428.008 892.505 437.455 896.038C438.499 896.429 438.511 897.253 438.695 898.199C438.136 899.801 437.442 900.656 436.103 901.619C422.122 911.671 402.684 906.849 392.987 893.319C383.861 880.673 380.737 861.298 380.977 845.858C382.189 768.145 398.857 691.207 401.586 613.451C402.371 591.095 403.833 569.91 401.429 547.567C400.187 536.021 397.916 524.178 397.617 512.715C397.683 509.815 402.125 508.319 404.202 509.403C414.059 514.546 415.816 537.452 416.512 546.813C422.257 624.098 410.362 701.282 402.894 778.012C401.124 796.171 399.264 815.173 399.199 833.371C399.142 849.7 400.132 863.216 407.207 878.159C409.198 881.381 410.245 882.728 412.784 885.604ZM409.153 886.647C407.1 884.239 406.242 883.239 404.579 880.514C390.186 855.018 397.896 797.691 400.676 768.506C407.716 694.59 419.571 620.238 413.079 545.772C412.369 537.582 410.426 517.411 403.275 512.745L401.927 512.631C398.795 515.823 404.346 541.749 404.697 547.901C408.408 612.994 399.92 678.404 392.498 742.976C388.489 778.06 383.167 812.767 384.207 848.059C384.92 866.763 388.667 893.373 408.414 901.391C417.421 905.048 428.304 904.571 435.7 897.792C424.168 896.029 417.862 895.246 409.153 886.647Z"/><path d="M404.579 880.514C406.791 879.438 406.237 880.094 407.207 878.159C409.198 881.381 410.245 882.728 412.784 885.604L409.153 886.647C407.1 884.239 406.242 883.239 404.579 880.514Z"/><path d="M429.579 914.799C421.152 916.797 400.141 917.801 391.165 917.853C370.527 917.973 349.499 917.733 328.829 917.656L213.318 917.444L166.748 917.482C162.307 917.496 143.885 918.837 142.07 915.504C143.414 914.603 145.489 914.455 147.105 914.457C164.726 914.485 182.44 914.54 200.053 914.554L334.73 914.878C360.481 914.862 388.431 915.192 413.925 913.969C415.847 914.142 428.926 914.588 429.579 914.799Z"/></svg>