<?xml version="1.0" encoding="utf-8" ?><svg xmlns="http://www.w3.org/2000/svg" xmlns:xlink="http://www.w3.org/1999/xlink" width="1024" height="1024" viewBox="0 0 1024 1024"><path d="M558.031 243.243C559.906 243.063 561.143 243.193 563.032 243.313L562.805 243.558C560.853 244.203 560.87 244.123 558.764 244.048L558.031 243.243Z"/><path d="M516.941 123.64C518.794 122.427 520.665 121.241 522.554 120.083C543.545 107.429 551.038 116.768 561.46 134.643C577.958 140.44 587.414 136.138 589.881 157.135C591.18 168.195 591.977 172.091 589.769 183.328C591.547 185.52 592.013 186.273 593.362 188.763C599.642 187.95 607.195 186.982 612.65 190.881C621.119 197.029 618.275 209.635 612.567 216.704C596.672 236.39 572.12 240.449 548.704 243.836C580.608 247.192 613.517 246.94 645.228 253.172C648.467 253.808 650.759 254.209 653.126 256.615L651.097 258.692C634.456 260.203 613.759 257.353 597.197 255.248C573.692 252.128 550.122 249.525 526.503 247.442C515.178 246.475 502.604 245.045 491.346 245.618C473.386 244.86 450.755 250.295 432.478 251.47C417.518 252.432 402.556 251.838 387.91 254.684C381.32 256.171 376.75 260.832 373.086 266.219C365.732 279.733 366.184 294.425 361.609 308.795C359.813 314.44 356.521 320.014 353.937 325.392C351.838 329.761 349.004 335.288 349.734 340.323C350.165 343.303 354.473 343.904 356.655 342.548C365.942 336.28 370.868 323.817 374.179 313.542C377.246 303.299 377.655 292.94 376.146 282.57C375.38 277.3 374.518 272.3 374.461 267.096C375.031 265.561 375.064 265.62 376.109 264.326C377.916 263.339 378.955 263.654 381.118 263.795C390.477 268.068 394.84 292.183 404.023 299.135C424.062 314.306 441.742 290.896 449.295 274.409C451.509 269.575 454.606 261.247 457.83 257.472C460.239 256.502 462.372 259.274 464.2 261.294C480.145 279.159 487.668 298.426 512.489 305.712C539.031 313.503 558.415 300.597 570.485 277.247C571.62 275.051 573.811 271.321 576.148 270.347C578.804 269.239 582.638 270.904 584.808 272.493C593.679 279.336 600.952 287.429 611.496 291.911C628.399 299.095 646.049 286.4 650.121 269.835C650.925 266.567 651.748 262.184 652.998 259.189L654.762 257.875C665.411 256.714 671.568 275.901 673.65 284.078C677.475 299.095 694.437 332.816 677.24 343.491C669.527 343.78 666.171 343.222 659.08 339.688C655.601 353.131 655.911 362.809 656.181 376.54C656.272 381.16 656.265 386.123 656.03 390.759C655.907 393.2 653.697 396.57 653.917 398.965C654.357 403.773 658.303 407.926 657.692 412.885C657.203 416.858 655.004 419.182 652.507 422.031C664.767 422.767 687.332 423.66 697.196 431.565C698.935 432.958 701.015 440.187 703.891 440.59C708.484 440.544 711.528 435.677 716.176 441.268C733.668 462.307 720.512 492.471 732.044 515.674C737.137 526.065 748.553 543.692 727.054 541.987C716.276 541.153 709.503 531.149 699.311 528.325C680.576 534.849 676.672 556.167 654.609 557.357C649.511 557.679 644.415 556.694 639.804 554.497C623.225 546.638 617.027 526 599.725 522.302C574.348 528.43 574.47 570.666 529.366 571.58C519.056 571.789 509.074 569.404 500.254 563.984C490.473 557.973 482.618 549.058 474.875 540.704C469.94 535.38 465.049 529.473 458.564 525.981C453.186 523.061 446.926 522.21 440.964 523.587C431.664 525.668 424.026 532.788 416.333 538.152C401.557 548.454 384.456 547.967 369.267 538.626C365.267 536.131 361.56 533.196 358.214 529.876C353.899 525.621 343.916 511.97 339.309 511.498C335.502 514.077 335.808 526.49 333.348 531.672C329.012 540.806 317.001 548.741 318.32 559.482C320.581 570.21 328.605 574.055 330.387 586.163C349.107 584.204 359.951 588.818 377.278 595.022C381.071 596.38 389.681 599.589 393.57 599.922C406.673 601.043 420.115 600.449 433.469 601.124C466.506 602.794 499.738 608.695 532.742 604.93C548.433 603.14 566.01 599.302 581.083 594.577C601.773 587.973 622.157 579.506 644.192 578.905C651.995 578.692 659.413 580.426 667.029 577.735C680.115 573.112 691.032 563.982 702.588 556.545C704.602 555.248 707.55 553.457 710.017 553.909C716.26 559.52 712.921 608.757 709.093 616.479C706.058 612.32 700.387 604.197 697.144 600.648C687.456 590.046 672.276 583.641 658.291 581.437C628.992 576.819 602.329 590.111 574.952 598.067C561.364 601.948 547.474 604.679 533.428 606.233C503.932 609.403 483.899 606.292 454.607 604.03C435.552 602.387 416.425 601.714 397.302 602.015C405.327 605.878 413.121 608.21 420.735 611.568C463.1 630.255 507.394 638.564 553.496 640.476C566.188 641.002 580.72 642.732 593.468 641.243C608.403 639.499 623.322 632.493 637.695 628.269C653.09 623.744 668.977 622.013 684.961 621.308C694.089 620.905 699.484 619.106 708.214 622.504C721.332 618.69 741.679 616.251 754.298 623.187C759.609 626.105 762.453 629.672 765.97 634.404C772.068 635.852 779.185 637.404 782.605 643.413C794.513 664.365 785.497 688.57 789.375 711.295C792.267 728.245 804.64 743.749 801.385 761.085C799.434 771.48 788.71 774.83 779.785 771.923C777.077 771.041 771.446 768.96 768.904 770.14C766.639 773.824 770.153 787.201 770.639 792.039C772.554 811.078 773.969 831.44 769.19 850.141C768.096 854.288 764.913 859.049 762.689 862.512C766.6 862.324 778.341 861.515 777.585 867.818C776.322 878.338 748.339 887.541 751.123 897.418C755.368 901.759 768.037 897.888 773.145 896.003C804.939 884.27 832.934 877.154 866.943 874.412C896.841 872.218 926.877 872.758 956.676 876.025C981.993 879.004 997.877 883.274 1024 883.051L1024 885.056C1014.46 884.549 1003.13 884.51 993.764 883.355C978.085 881.421 962.87 878.327 947.056 876.711C915.688 873.424 884.05 873.675 852.738 877.457C838.892 879.228 827.69 881.556 812.777 884.931C795.171 888.915 770.269 903.161 752.28 900.774C751.016 900.607 748.188 898.279 748.032 897.22C748.324 884.847 769.919 880.001 774.665 869.502C776.007 866.534 771.038 863.382 767.957 864.821C764.94 866.146 761.988 868.711 759.719 871.122C750.976 880.41 740.928 885.125 729.404 890.135C719.05 894.636 708.688 899.54 697.663 902.576C666.836 911.065 634.255 911.896 602.527 912.719C567.044 913.65 531.545 913.804 496.056 913.181C479.193 912.929 462.697 912.899 445.771 912.022C431.296 911.272 417.471 909.856 403.024 908.574C394.251 907.795 385.442 908.426 376.218 907.59C342.233 904.509 306.055 898.703 274.836 884.289C262.261 878.483 260.703 873.048 252.046 864.837C245.267 868.69 239.702 873.514 231.509 875.227C205.078 880.75 173.124 874.296 146.486 871.609C128.078 869.567 109.547 868.853 91.037 869.471C68.5616 870.291 46.2153 873.249 24.3006 878.305C17.1531 879.955 6.84129 883.644 0.84559 884.807L0 884.964L0 883.005C5.73767 880.838 16.937 878.193 23.0222 876.761C64.2288 867.246 106.781 865 148.76 870.126C173.325 872.969 233.857 885.421 249.951 861.585C242.294 842.199 240.208 819.191 251.547 800.434C254.83 795.003 259.522 791.913 264.924 788.802C264.568 784.945 264.838 776.886 263.217 773.852C259.004 772.3 259.154 771.236 257.096 767.358C254.304 762.095 251.232 756.299 245.711 753.565C235.183 748.352 221.039 765.765 218.204 748.224C215.519 731.609 226.594 720.614 231.851 705.985C237.79 689.564 240.285 672.18 246.838 655.989C250.673 646.473 255.147 640.929 263.47 635.127C279.025 622.585 295.049 621.19 313.919 618.145L317.6 610.202C320.915 603.506 323.164 598.24 325.832 591.364C323.879 593.271 315.432 604.247 315.095 604.401C313.174 594.711 316.068 576.216 315.636 564.861C315.272 555.298 313.824 541.491 314.411 532.567C306.949 536.102 295.776 542.343 289.275 533.179C287.275 530.36 286.972 526.238 288.245 523.002C291.671 514.292 298.696 507.317 302.519 498.708C309.447 484.029 310.768 468.01 313.507 452.524C317.122 432.083 326.129 424.943 345.907 421.283C351.104 420.046 355.911 419.038 360.398 415.836C378.318 403.044 356.555 377.547 370.336 362.587C371.399 361.433 375.898 362.635 377.67 363.068C379.008 359.619 379.69 358.349 381.571 355.14C378.603 351.453 375.258 347.588 376.986 342.415C379.05 336.236 386.213 332.664 391.588 329.809C389.764 326.276 386.065 315.03 382.721 314.022C379.495 315.718 379.39 323.504 377.308 325.656L376.56 325.374C375.627 322.474 377.945 318.262 379.079 315.546C383.477 305.008 394.402 316.881 399.954 320.855C397.145 308.292 387.706 277.543 378.377 269.382L377.44 269.813C375.952 272.093 378.847 287.33 378.96 292.115C379.099 297.639 378.688 303.163 377.735 308.606C375.686 319.772 368.513 336.652 359.004 343.223C349.679 348.766 345.812 341.675 348.376 332.799C349.928 327.509 352.914 322.21 355.694 317.418C364.75 301.806 362.417 274.351 373.903 260.858C385.614 247.1 413.649 251.619 429.773 249.768C445.981 247.908 462.535 245.468 478.803 243.941C482.596 243.572 485.543 244.346 489.203 242.786L489.035 242.511C486.207 242.554 483.378 242.457 480.56 242.22C456.494 240.152 410.3 232.593 412.677 199.633C413.279 191.275 424.752 187.633 430.617 182.734C428.306 175.112 422.85 172.133 424.817 163.05C428.488 146.098 453.466 144.999 466.707 147.693C477.052 126.142 491.651 108.183 516.941 123.64ZM439.049 701.063C436.333 702.035 434.319 702.948 432.119 704.887C425.254 710.937 420.432 719.987 415.299 727.494C402.061 746.853 372.914 791.271 344.699 777.756C336.846 773.995 329.979 767.623 324.384 761.047C320.877 756.879 317.556 752.557 314.433 748.094C310.01 741.691 295.404 715.862 286.981 718.497C284.476 719.28 282.989 721.981 282.047 724.24C278.602 732.494 278.454 742.177 275.478 750.657C273.008 757.691 267.161 764.187 265.801 771.392C264.788 776.757 265.898 783.436 266.62 788.834C284.131 788.937 296 800.052 310.699 807.741C320.143 812.637 329.889 816.923 339.88 820.575C365.084 829.752 391.331 835.758 418.017 838.454C471.947 844.175 506.296 836.165 557.671 820.737C572.467 816.294 586.658 810.187 601.954 807.511C648.728 799.329 726.676 806.788 762.025 842.255C764.257 844.495 765.98 846.856 767.616 849.565C772.06 827.168 770.583 802.739 767.043 780.267C766.315 775.649 765.682 770.575 764.284 766.121C759.05 761.128 752.726 757.083 745.187 757.389C724.018 758.249 718.785 789.95 681.24 787.353C671.867 786.704 664.081 783.776 657 777.548C644.534 766.583 634.632 745.056 615.381 745.769C600.774 746.31 586.074 765.042 575.129 774.032C568.548 779.438 561.676 783.952 554.122 787.869C533.952 796.407 511.198 796.489 490.967 788.095C481.143 784.173 472.127 778.47 464.373 771.274C460.357 767.581 456.737 763.539 453.164 759.425C446.398 751.636 434.801 735.627 422.539 740.553C412.951 744.404 406.551 758.632 400.878 766.563C388.454 783.934 371.106 795.963 349.532 787.388C340.277 783.71 332.084 776.962 325.257 769.836C321.408 765.791 317.775 761.547 314.372 757.12C310.496 752.019 300.003 733.524 292.58 735.081C291.504 735.866 290.955 735.967 290.862 737.388C290.635 740.832 293.609 744.607 293.055 747.951C290.583 745.753 289.055 741.587 288.932 738.324C288.859 736.38 289.186 734.954 290.172 733.292C291.423 732.437 292.195 732.075 293.729 732.41C303.788 734.608 316.075 756.186 322.957 764.347C336.988 780.989 358.252 796.383 379.979 783.649C388.585 778.605 395.416 770.873 401.149 762.831C408.218 752.914 417.937 728.176 432.551 732.125C436.757 733.262 440.452 736.203 444.156 738.433C476.656 758.004 494.711 793.322 537.182 770.055C543.872 766.426 550.082 761.976 555.669 756.808C572.622 741.062 596.523 706.792 623.415 714.834C649.945 722.769 648.373 764.13 679.311 767.116C687.524 767.908 696.233 765.364 703.473 761.621C729.218 748.307 746.441 724.039 754.834 696.799C758.109 686.172 760.39 674.803 761.277 663.723C761.727 658.099 761.613 652.445 762.091 646.828C757.681 655.51 755.545 664.91 752.258 674.018C743.562 698.114 728.336 728.032 702.404 736.595C691.631 740.153 679.107 739.752 668.961 734.465C662.105 730.892 656.309 725.188 651.951 718.854C644.683 708.292 636.633 683.207 619.536 688.422C611.904 690.75 605.949 696.163 600.098 701.339C578.827 720.156 562.013 732.063 532.27 731.525C520.36 731.309 508.255 729.799 497.583 724.193C486.836 718.547 474.659 709.278 466.335 700.351C457.555 690.935 445.174 662.689 429.046 667.79C419.862 670.694 412.666 680.515 406.835 687.695C387.868 711.047 362.489 749.295 327.732 732.096C303.779 720.242 289.608 694.44 277.835 671.626C274.354 664.88 271.241 657.077 266.525 651.105C264.83 648.959 263.038 647.719 260.548 646.648C259.557 648.737 258.652 650.701 258.331 653.008C257.144 661.519 259.276 670.379 260.712 678.737C262.589 689.662 264.758 701.259 264.298 712.369C263.505 731.54 254.798 734.286 258.895 757.769C259.42 760.776 259.457 764.463 260.509 767.294C260.913 768.382 260.663 767.98 261.544 768.735C267.373 764.589 271.535 755.862 273.618 749.212C276.016 741.554 278.057 714.689 289.558 716.502C296.187 717.548 301.844 726.146 305.316 731.299C316.087 747.283 331.637 774.623 351.961 778.53C360.289 780.131 368.554 775.849 375.16 771.177C392.491 758.917 405.328 739 417.214 721.742C421.408 715.653 425.138 708.653 430.716 703.696C433.673 701.068 436.58 699.569 440.599 700.146C452.16 701.806 465.334 721.005 473.468 729.182C478.868 734.612 484.825 739.962 490.861 744.672C496.513 749.082 502.325 753.107 508.651 756.505C512.786 758.727 517.905 760.322 521.525 763.295L521.564 763.921C518.416 763.916 515.07 761.926 512.32 760.532C498.436 753.49 486.237 744.264 475.269 733.269C465.468 723.443 452.305 705.333 439.049 701.063ZM264.057 637.382C268.824 638.506 272.314 639.44 276.203 642.674C285.234 650.184 292.546 661.64 300.158 670.673C323.445 698.306 349.235 712.569 382.5 691.908C387.712 688.68 392.633 685.005 397.209 680.926C412.142 667.725 424.913 650.721 443.95 669.302C451.393 676.567 456.789 684.372 462.792 692.792C479.478 715.785 499.293 721.494 526.658 722.475C539.226 723.058 553.68 722.987 564.957 716.511C578.39 708.796 585.813 692.862 595.324 681.049C600.224 674.963 616.111 657.584 624.699 659.681C635.289 662.267 641.038 678.97 646.156 687.211C660.032 711.59 685.1 725.185 711.341 710.204C736.069 696.253 743.886 669.382 757.432 646.333C758.24 644.947 761.285 640.113 762.903 640.329C779.256 666.274 763.568 722.434 779.538 750.845C781.418 754.189 783.427 757.796 784.433 761.504C759.013 737.99 776.616 679.82 763.575 647.188C762.546 684.498 755.241 719.329 727.447 746.434C709.607 763.831 678.685 780.572 657.886 758.12C644.128 743.269 639.599 716.884 615.776 715.041C608.163 714.431 602.328 718.123 596.301 722.019C580.484 733.242 570.604 744.638 556.784 758.16C544.527 770.153 522.592 782.205 504.781 779.435C483.142 775.425 465.516 754.613 447.759 742.753C434.869 734.144 429.356 727.579 416.703 741.224C440.616 731.098 448.571 753.272 462.397 766.789C494.898 798.561 542.764 802.264 576.45 770.474C590.322 757.381 606.62 737.259 627.181 746.127C646.303 754.097 652.943 779.566 673.86 784.374C683.563 786.569 693.538 785.978 702.791 782.507C721.372 775.536 731.803 747.645 755.213 757.572C765.118 761.772 779.208 775.418 791.435 769.993C807.69 762.781 796.866 739.916 792.302 728.603C789.629 722.185 787.942 716.171 787.01 709.232C784.324 689.236 790.918 667.108 783.057 648.019C776.857 632.965 763.198 638.348 750.353 639.454C724.883 641.646 698.407 641.884 672.871 644.044C662.104 644.978 651.269 646.74 640.496 647.908C613.276 650.945 585.975 653.201 558.627 654.673C495.987 657.533 434.233 649.598 372.075 643.624L342.607 640.804C334.019 639.983 320.891 640.609 315.773 632.702C313.256 628.813 315.358 623.043 311.639 621.061L308.825 621.21C291.148 623.047 277.95 626.161 264.057 637.382ZM622.271 883.522C644.961 874.745 671.221 874.085 695.135 870.606C706.486 868.954 717.612 865.975 728.731 863.214C740.877 860.183 750.886 858.101 763.445 857.728C764.701 854.899 766.195 852.25 765.056 849.094C761.76 839.957 738.413 826.718 729.756 822.982C690.583 806.077 636.868 801.071 595.265 810.376C582.049 813.332 569.319 818.573 556.395 822.586C516.107 835.097 475.938 844.536 433.473 841.232C401.646 838.755 371.047 832.814 340.817 822.588C330.463 819.086 320.402 814.417 310.72 809.365C297.309 802.366 282.998 790.08 267.191 790.556C266.789 796.675 267.114 802.783 266.923 808.903C266.517 821.929 264.296 836.276 258.896 848.205C257.563 851.15 252.743 859.241 254.625 862.268C261.962 863.482 270.13 851.266 282.809 854.457C295.735 857.71 305.859 869.151 316.347 876.72C338.564 892.752 375.395 905.32 402.76 906.105C434.253 907.008 473.517 894.764 503.906 886.052C521.212 881.091 538.238 875.979 556.364 875.176C578.941 874.177 600.148 880.669 622.271 883.522ZM349.691 509.599C350.542 510.342 357.318 515.99 357.452 516.143C359.317 517.809 363.765 520.523 366.182 522.11C375.142 527.995 390.121 537.603 401.32 535.147C409.786 532.098 413.857 522.409 419.623 516.371C426.944 508.706 436.346 497.03 445.549 492.03C455.861 486.426 466.675 502.512 472.282 509.456C483.414 523.242 497.113 538.933 514.125 545.368C524.784 549.403 536.608 549.049 547.006 544.384C564.279 536.461 573.348 516.035 578.795 499.085C586.074 476.169 599.937 482.963 614.624 494.373C623.045 500.916 633.333 509.382 643.226 513.354C673.354 525.45 687.593 491.406 704.064 473.768C706.327 471.344 709.437 466.919 712.445 465.614L713.203 466.017C713.989 472.197 713.343 478.218 712.883 484.398C712.082 495.169 711.293 506.216 713.338 516.903C714.778 524.422 718.053 534.345 724.856 538.664C726.967 540.004 729.285 540.327 731.706 539.774C733.682 539.323 736.127 538.374 737.093 536.446C739.096 532.451 733.023 522.669 731.202 518.853C720.377 496.172 727.542 478.646 721.48 455.697C720.131 450.59 717.748 443.893 712.823 441.274C711.441 440.54 709.869 440.282 708.367 440.848C702.476 443.066 699.238 462.545 696.083 468.81C690.447 479.999 680.462 489.38 668.432 493.254C661.859 495.37 654.783 495.632 648.003 494.429C615.137 488.601 609.971 450.313 597.258 444.434C595.885 443.799 594.314 443.648 592.918 444.34C586.188 447.681 581.735 475.745 579.614 483.726C577.952 489.981 576.071 496.301 573.318 502.17C567.389 514.807 558.58 525.319 545.127 530.091C513.761 541.216 488.718 516.19 471.071 493.487C465.327 486.099 458.36 474.144 449.493 470.24C445.477 468.471 441.902 468.973 438.153 471.074C432.445 474.274 428.165 479.541 423.745 484.245C412.811 495.885 400.303 508.259 385.177 514.106C376.95 517.287 367.21 518.322 359.013 514.58L358.349 514.269C355.128 512.506 353.533 510.769 350.944 508.222C338.961 491.03 340.814 472.293 333.211 453.568C332.424 451.63 329.853 446.08 328.288 444.999C325.74 446.721 325.755 455.53 325.765 458.492C325.846 482.745 323.754 509.678 303.145 525.86C302.004 526.755 300.787 527.453 299.289 527.587L298.967 527.086C300.008 525.354 305.679 520.57 307.676 518.469C317.832 507.778 321.157 494.178 322.52 479.808C322.915 475.514 323.167 471.207 323.276 466.896C323.423 461.667 322.532 441.532 329.105 438.933C330.528 438.37 332.882 438.979 334.12 440.003C350.692 453.71 351.298 480.676 374.985 487.445C380.149 488.964 385.583 489.337 390.906 488.535C408.201 485.916 422.823 473.202 435.275 461.93C442.446 455.438 453.659 447.657 462.902 454.721C470.475 460.36 475.281 468.548 481.256 475.704C493.166 490.102 511.27 502.822 530.809 499.649C552.267 496.276 566.579 478.884 577.583 461.605C579.198 459.07 582.18 456.302 583.947 453.67C585.726 451.179 587.115 447.995 588.919 445.573C598.325 432.945 608.604 454.082 612.602 461.314C621.022 476.539 630.449 488.716 648.364 492.271C675.374 497.831 698.941 472.926 699.985 447.063C700.539 433.325 694.012 429.804 681.978 426.881C666.889 423.215 656.012 428.5 641.218 429.316C630.396 429.913 618.78 429 607.877 429.511C590.626 430.2 573.262 432.017 555.998 432.408C526.356 433.078 496.69 432.874 467.042 432.826L416.796 432.358C403.628 432.12 373.209 432.848 363.906 423.12C363.109 422.273 362.338 421.401 361.595 420.506C351.317 420.222 333.216 424.66 325.504 432.246C314.101 443.464 314.58 461.918 311.677 476.631C310.373 483.241 307.891 491.506 305.262 497.6C303.998 500.593 302.522 503.493 300.847 506.276C296.332 513.655 283.359 527.035 293.003 534.255C300.877 540.148 308.715 529.822 318.184 530.995C322.817 523.122 329.72 507.624 338.242 503.768C341.821 502.148 347.05 507.866 349.691 509.599ZM627.611 316.52C599.269 314.224 592.774 285.694 568.368 315.651C569.776 314.868 573.54 312.749 575.086 312.426C593.165 308.654 596.323 346.296 614.002 353.566C619.34 355.761 625.799 357.865 630.751 355.691C647.358 347.847 651.002 326.041 656.303 310.325C657.236 307.559 656.991 301.157 659.667 300.184C661.65 307.649 651.541 333.866 647.671 341.401C644.137 348.281 638.66 355.61 630.905 357.867C626.702 359.091 622.004 358.765 617.837 357.557C595.668 351.132 593.31 320.577 581.364 314.918C569.183 309.147 554.851 337.797 548.293 345.28C543.203 351.088 536.509 356.467 529 358.699C515.42 362.738 501.297 359.265 489.175 352.674C488.496 352.305 488.924 352.411 487.959 352.51C487.604 356.158 495.254 361.018 498.255 362.565C520.391 373.978 545.807 367.267 569.351 366.878C583.125 366.65 597.973 369.264 611.485 371.724C622.055 373.905 634.936 377.038 643.634 383.599C646.796 385.985 650.844 391.804 653.008 395.102C657.005 377.552 651.117 357.002 656.832 339.858C658.578 334.619 670.325 344.214 676.398 341.612C686.38 338.27 682.558 319.712 680.106 311.848C676.642 300.745 668.785 265.121 658.012 259.946C656.743 259.945 655.11 260.031 654.728 261.451C651.614 273.03 650.301 281.026 640.12 289.188C636.071 292.44 631.273 294.626 626.162 295.548C604.044 299.564 588.086 273.364 578.421 272.231C577.507 272.767 576.724 273.328 576.675 274.535C576.167 286.853 574.837 296.134 569.581 307.518C565.208 316.02 557.535 322.822 549.673 328.094C536.764 336.109 521.439 342.157 506.06 338.72C494.787 336.201 487.604 328.032 480.104 319.908C468.162 306.972 463.5 310.107 452.725 321.525C433.535 341.863 416.27 358.889 392.472 331.698C366.782 344.943 381.139 354.055 400.396 359.406C415.536 363.612 429.276 353.455 439.192 343.135C444.302 338.027 467.123 306.283 473.858 320.286C482.459 338.169 480.274 351.112 504.276 357.235C507.698 358.139 511.224 358.595 514.764 358.591C529.236 358.863 540.612 353.393 548.672 341.178C545.66 344.097 543.08 346.388 539.571 348.742C538.098 349.73 536.017 350.732 534.786 351.803C533.408 352.276 532.022 352.723 530.628 353.146C526.634 354.333 520.803 355.293 517.041 353.257L516.995 352.483C518.826 351.605 520.654 351.709 522.704 351.702C531.397 351.673 535.236 349.617 541.715 344.525C552.305 336.459 562.157 319.111 571.109 308.864C589.608 287.385 602.96 309.705 622.092 313.966C634.961 316.832 644.768 291.514 654.553 293.593C657.772 296.432 655.854 302.737 655.042 306.569C651.391 323.78 634.696 349.592 613.909 339.696C613.004 339.265 612.84 338.463 612.801 337.635C614.446 337.213 619.258 339.877 622.666 339.726C634.363 339.336 643.315 328.236 648.391 318.721C650.481 314.803 657.009 299.496 653.13 296.26C649.17 296.202 644.432 302.075 641.734 304.858C637.065 309.673 633.778 313.587 627.611 316.52ZM692.719 506.485C695.106 497.055 701.888 482.883 706.954 474.242C701.417 479.746 693.487 489.57 689.36 495.498C667.946 526.257 645.03 522.717 618.756 500.223C611.72 494.201 595.456 480.604 586.568 489.035C582.374 492.756 579.207 505.299 577.046 510.856C559.101 557.009 519.899 562.439 485.819 528.174C482.121 524.483 478.6 520.618 475.269 516.592C470.241 510.458 458.575 492.807 450.103 493.182C441.427 493.567 429.117 509.843 423.296 515.681C416.722 522.273 409.066 537.763 398.801 537.754C383.439 537.243 369.043 526.804 357.126 518.121C352.909 515.048 344.651 506.842 340.388 506.146C333.807 505.072 321.601 528.288 319.356 532.714C316.894 539.735 316.667 543.944 316.947 551.446C323.359 540.261 332.827 534.438 333.909 519.386C334.187 515.513 334.681 510.553 338.296 508.585C340.409 508.494 343.183 510.99 344.731 512.437C348.835 516.275 352.368 520.908 356.291 524.95C366.767 535.749 378.397 544.144 393.948 543.829C416.35 543.375 426 520.166 448.219 520.96C456.249 521.247 463.218 525.111 468.593 530.615C486.992 549.458 500.503 570.794 530.327 569.613C545.414 569.016 554.562 564.435 565.495 553.493C575.102 543.879 585.079 521.644 599.12 520.825C605.373 520.46 610.623 524.332 614.867 528.48C625.693 539.061 635.534 555.324 652.504 555.547C662.636 555.679 669.351 550.538 676.11 543.732C682.098 537.702 690.663 527.045 699.754 526.515C706.287 526.134 711.348 533.252 716.759 535.778C717.659 536.198 718.98 537.197 719.827 537.824L720.345 537.649L719.914 537.091C701.705 513.121 714.889 480.801 710.588 472.23C705.364 482.496 698.543 497.057 692.719 506.485ZM382.107 358.595C378.933 365.976 379.508 369.747 380.675 377.567C381.676 384.275 382.588 391.053 382.77 397.839C386.288 395.625 390.819 392.635 394.729 391.115C437.952 374.302 481.367 414.337 525.309 399.48C534.242 396.46 541.788 393.033 550.168 389.103C574.977 378.19 597.776 370.468 624.183 381.152C631.338 384.047 640.257 387.782 646.676 391.978C647.508 392.522 647.134 392.341 648.259 392.441C640.649 374.819 585.494 368.295 567.869 368.619C539.173 369.147 497.361 381.241 481.707 346.669C478.394 339.352 475.151 320.84 467.905 319.048C450.019 325.779 437.272 357.454 414.958 361.586C404.823 363.462 391.464 362.365 382.107 358.595ZM437.625 415.175L576.515 418.771C587.548 419.116 598.576 419.588 609.598 420.184C619.869 420.788 630.279 421.525 640.529 421.456C644.101 421.131 650.361 421.589 652.832 418.478C660.679 408.598 650.144 396.15 641.142 391.349C626.92 383.764 611.109 376.892 594.61 378.199C568.981 380.369 551.947 391.441 528.793 400.511C480.878 419.28 427.368 366.41 383.913 400.287C379.715 403.56 384.635 409.335 388.206 410.665C402.628 415.5 422.622 414.924 437.625 415.175ZM414.361 907.743C432.929 911.48 453.22 910.9 472.15 911.331C510.552 912.256 548.97 912.311 587.375 911.496C626.122 911.156 674.524 909.948 710.848 896.053C714.724 894.571 720.134 893.295 723.221 890.411L723.217 889.625C715.688 887.894 697.592 892.385 688.56 893.097C679.832 893.785 670.95 893.342 662.232 892.603C628.095 889.706 586.608 873.04 553.532 876.782C523.749 879.5 495.94 890.776 467.174 898.035C455.816 900.788 444.36 903.114 432.828 905.009C426.707 905.978 420.419 906.483 414.361 907.743ZM574.673 494.429C576.584 488.27 582.903 466.085 581.966 460.831C580.996 460.763 581.35 460.62 580.58 461.243C577.401 463.81 573.527 471.186 570.972 474.759C559.441 490.885 542.337 502.757 521.864 501.529C505.319 500.537 491.468 490.963 480.831 478.808C474.208 471.239 466.247 454.566 454.99 453.989C437.179 453.077 415.426 496.167 379.463 490.496C371.132 489.182 364.547 485.804 358.764 479.658C349.68 470.004 342.755 449.387 334.819 443.036C333.243 441.774 331.574 441.435 329.629 441.13C329.781 442.587 336.314 456.446 337.49 459.76C343.389 476.394 341.369 497.799 355.665 510.171C377.634 526.506 406.79 500.02 421.035 484.365C428.966 475.648 441.802 460.67 454.583 471.286C477.666 493.496 496.178 534.6 534.667 530.727C555.693 528.611 566.789 513.303 574.673 494.429ZM259.159 767.169C256.626 755.296 253.493 742.922 258.086 731.639C265.485 713.463 262.256 697.687 258.911 679.074C257.818 672.996 253.203 648.502 260.885 645.425C268.141 645.467 275.749 663.159 278.677 669.144C289.421 691.113 302.487 713.457 323.232 727.419C372.797 755.865 390.401 691.211 423.213 669.02C426.546 666.766 430.815 665.642 434.651 664.594C428.916 662.694 424.888 662.427 419.275 665.228C411.7 669.007 405.177 676.247 398.882 681.807C381.978 696.737 360.325 708.332 337.376 701.136C316.01 694.436 301.613 675.493 288.351 658.621C284.08 653.187 279.847 647.066 273.997 643.207C270.272 640.749 266.904 640.01 262.534 639.556C251.108 648.113 253.846 667.451 253.216 680.055C252.581 692.772 250.919 705.391 247.378 717.645C246.213 721.709 244.776 725.689 243.076 729.559C241.634 732.855 232.901 748.435 233.169 750.502C236.021 752.131 242.521 750.306 245.309 750.976C251.11 752.369 256.397 762.321 259.159 767.169ZM320.747 619.799C325.341 630.572 336.713 631.967 346.993 633.309C357.728 634.71 368.551 635.344 379.343 636.189L437.484 640.66L488.927 645.38C496.568 646.061 507.357 647.274 514.875 647.472C539.442 647.721 556.834 647.769 581.2 643.4C575.162 642.856 568.973 643.003 562.9 642.749C526.311 641.222 490.621 637.155 455.521 626.381C448.33 624.16 441.244 621.614 434.283 618.751C424.618 614.864 395.109 601.27 386.186 602.183C369.991 603.442 330.833 607.322 320.747 619.799ZM515.801 236.185C515.544 208.955 539.204 187.164 536.707 159.472C536.501 157.185 535.489 153.107 533.805 151.441C524.362 157.78 517.028 162.962 511.935 173.47C524.204 192.644 518.345 206.508 511.793 226.495L513.42 230.621C514.228 232.47 515.022 234.324 515.801 236.185ZM510.604 176.166C508.489 182.669 506.606 218.149 510.743 222.951C511.557 221.955 511.445 221.727 511.678 220.415C515.388 208.866 519.883 195.741 515.716 183.472C515.013 181.404 512.65 177.208 510.604 176.166ZM493.882 240.562C477.514 236.551 449.762 233.461 438.613 220.138C433.801 214.384 430.109 209.059 430.506 200.975C430.589 199.281 430.388 199.694 431.287 198.641L431.895 198.93C432.5 201.584 432.738 206.799 433.487 208.742C441.87 230.466 471.352 233.327 490.075 237.43C477.834 229.738 469.73 223.436 461.764 210.959C455.893 201.763 448.498 192.367 445.785 181.607C443.702 173.345 453.872 168.434 459.576 165.009C461.706 159.848 463.779 154.368 465.952 149.282C460.865 148.812 457.305 148.486 452.164 148.723C432.24 150.478 419.863 158.507 430.944 178.14C431.99 180.264 432.814 183.35 430.873 185.157C424.286 191.294 412.918 192.716 414.45 204.54C418.36 234.7 470.892 240.775 493.882 240.562ZM504.636 168.214C497.363 162.236 492.375 159.7 483.396 157.307C487.042 163.25 488.805 166.453 490.403 173.246C494.203 189.391 489.967 223.388 506.523 233.663C506.435 219.878 505.956 206.245 505.457 192.471C505.163 184.379 505.557 176.263 504.636 168.214ZM249.904 855.829L251.022 857.835L251.968 858.02C253.797 856.343 255.002 853.295 255.996 851.033C262.348 836.568 264.627 820.297 265.339 804.612C265.469 801.747 266.15 793.814 264.422 791.469C254.647 797.658 249.667 805.656 247.174 816.898C244.351 829.629 245.136 843.651 249.904 855.829ZM468.803 148.465C476.125 150.365 482.006 154.583 489.866 156.735C487.676 149.314 493.864 144.707 498.682 139.96C504.054 134.668 509.868 129.6 515.657 124.761C508.213 120.552 505.326 119.102 496.546 119.574C481.778 123.432 475.087 135.788 468.803 148.465ZM495.506 721.241C514.661 731.57 537.96 731.868 558.642 726.345C573.378 722.41 585.898 711.302 597.13 701.444C606.297 693.398 618.637 681.06 631.931 687.928C639.215 691.758 645.755 704.828 649.976 712.132C661.325 731.77 676.423 741.126 699.338 735.697C715.864 731.781 728.447 716.813 736.781 702.665C744.016 690.382 750.072 674.205 754.915 660.75C755.071 659.52 756.324 654.691 756.666 653.256C755.336 655.345 753.948 657.775 752.664 659.922C740.154 683.076 729.408 708.295 701.893 716.437C681.024 722.613 663.241 713.794 650.66 696.964C648.467 693.996 646.457 690.898 644.64 687.687C641.662 682.484 631.53 661.053 625.312 662.722C622.422 663.497 617.486 667.484 615.178 669.9C593.313 692.801 584.872 718.893 549.266 723.429C536.099 725.107 526.326 724.854 512.886 722.961C508.872 722.396 499.484 721.132 495.506 721.241ZM538.166 116.101C529.715 117.815 525.832 120.443 518.612 125.122C526.644 133.425 528.45 136.573 534.832 145.85C536.567 145.663 536.188 145.536 537.804 144.141C545.256 137.187 547.896 135.141 558.083 133.8C554.433 125.739 548.448 115.323 538.166 116.101ZM690.279 637.486C694.408 636.693 705.268 635.29 709.125 636.573L708.998 637.206C706.783 638.5 706.083 638.413 703.446 638.747C701.284 639.021 694.472 639.759 692.704 640.542C696.901 640.465 701.059 640.424 705.25 640.127C714.491 639.849 724.207 639.182 733.486 638.682C742.061 638.22 754.691 637.613 763.073 635.715C754.171 616.502 724.943 618.528 708.428 624.455C702.579 633.262 700.095 634.353 690.279 637.486ZM499.856 240.199C502.773 241.08 505.283 241.819 508.256 242.522C491.2 232.525 465.255 207.924 460.449 188.397C459.041 182.677 458.432 175.228 458.892 169.304L458.17 168.901C454.748 170.832 449.048 173.675 447.829 177.658C446.601 181.671 449.979 187.949 452.054 191.373C468.611 218.689 472.159 225.057 499.856 240.199ZM524.713 230.167C539.322 226.09 558.858 212.49 568.015 200.489C567.191 199.972 567.592 200.072 566.869 200.019C549.426 206.293 535.016 211.582 524.523 228.775C524.254 229.216 524.173 229.561 524.03 230.03C524.255 230.089 524.49 230.231 524.713 230.167ZM394.326 330.393C421.021 363.85 440.296 327.915 460.912 311.476C472.883 301.931 489.305 333.307 506.604 336.849C522.482 339.794 537.744 333.942 550.739 325.125C568.219 313.265 574.714 296.273 574.485 275.864C564.292 290.306 555.126 306.114 535.926 309.19C520.239 311.703 506.549 307.031 493.58 298.483C479.654 289.305 471.349 268.544 460.107 260.317C459.781 281.143 459.646 298.873 443.313 314.826C435.264 322.692 424.393 326.995 413.142 326.769C409.071 326.707 405.902 326.095 401.97 325.019C399.468 326.905 397.046 328.841 394.326 330.393ZM477.421 431.427C482.385 431.514 489.034 431.666 493.86 431.231C492.18 430.452 487.231 430.237 485.314 430.174C475.557 428.554 466.128 428.094 456.339 427.126C433.357 424.856 411.299 425.432 388.449 429.082C417.472 431.12 448.099 431.021 477.421 431.427ZM457.872 261.508C454.887 266.555 452.638 272.591 449.949 277.896C440.983 295.59 423.767 315.888 402.662 300.459C395.904 293.608 392.689 286.651 389.01 277.888C387.547 274.403 384.238 265.086 379.073 266.131C379.024 267.685 385.283 274.242 386.908 277.272C391.184 285.243 395.266 296.238 397.632 304.95C399.353 310.922 401.422 316.761 403.441 322.638C428.544 330.731 449.359 312.264 455.657 288.751C458.29 278.921 458.486 271.654 457.872 261.508ZM647.27 256.403C644.347 252.827 553.675 244.745 544.46 246.67C558.219 248.817 637.397 259.492 647.27 256.403ZM659.343 424.526C656.166 424.492 653.898 424.435 650.736 424.806C645.821 425.264 633.666 426.114 629.373 427.286C631.421 427.51 632.51 427.487 634.587 427.443C645.036 426.975 649.148 426.669 659.343 424.526ZM530.625 243.051C558.304 241.826 588.477 238.225 609.189 217.72C620.618 206.405 617.135 187.062 599.482 190.203C597.47 190.38 595.842 190.264 594.34 191.538C593.353 195.895 592.03 202.748 590.273 206.782C579.4 231.742 546.349 245.848 520.638 239.767C519.415 239.481 518.202 239.154 517.001 238.786C516.399 239.975 515.785 241.251 515.142 242.409C520.762 243.071 524.996 242.996 530.625 243.051ZM637.887 424.407C627.766 422.769 617.406 422.451 607.17 421.944C592.006 421.1 576.826 420.558 561.64 420.318L447.891 417.54C431.008 417.009 413.556 417.104 396.832 415.147C392.424 414.632 385.309 413.031 382.508 409.441C380.931 407.421 381.204 404.978 379.264 403.561C375.107 403.321 374.805 404.891 371.15 401.704C369.883 405.971 362.437 418.705 365.392 421.57C375.318 431.192 393.289 426.208 405.483 425.091C440.277 420.708 474.146 428.467 508.999 429.585C531.972 430.31 554.966 430.015 577.913 428.701C592.76 427.832 607.404 426.219 622.279 425.5C627.944 425.447 632.263 425.303 637.887 424.407ZM521.575 223.234C528.994 213.28 537.618 206.412 546.386 197.991C558.24 186.605 567.325 168.934 564.479 152.146C563.559 146.718 562.328 136.239 555.607 136.075C545.705 138.062 542.561 142.798 535.804 149.437C547.7 184.091 516.261 208.122 519.711 226.828C520.253 225.343 520.739 224.536 521.575 223.234ZM573.754 713.186C587.234 704.162 595.978 689.693 606.145 677.381C609.829 672.92 614.069 669.037 617.798 664.648L617.664 664.015L617.086 663.931C601.063 672.072 593.429 688.081 582.753 701.507C580.748 704.028 574.371 710.18 573.409 712.472C573.306 712.719 573.271 712.989 573.202 713.248L573.754 713.186ZM386.112 313.654C388.426 319.269 391.008 323.888 393.266 329.117L397.731 325.847C399.275 324.406 399.061 325.18 399.125 323.625C397.097 320.837 389.271 315.338 386.112 313.654ZM378.644 375.342C376.812 380.026 373.558 395.836 375.139 400.677C375.963 401.583 375.59 401.357 376.772 401.704C378.746 400.451 380.17 399.735 380.658 397.272C381.869 391.166 380.005 381.312 378.644 375.342ZM516.886 125.898C512.084 130.228 491.36 147.777 491.023 152.977C493.601 156.805 501.355 154.164 504.334 159.677C506.337 163.383 506.461 166.847 508.204 170.409C508.767 170.325 509.459 170.222 510.279 170.1C513.698 166.893 515.824 162.629 519.401 159.383C523.787 155.4 528.947 152.295 533.256 148.715C530.31 141.499 523.396 130.277 516.886 125.898ZM316.534 598.638C318.444 595.691 319.12 594.79 321.516 592.194C324.641 589.19 325.825 588.251 328.164 584.666C326.703 579.366 321.452 569.501 317.568 566.252C317.266 576.972 316.352 588.066 316.534 598.638ZM601.394 641.725C606.626 641.757 611.901 641.846 617.125 641.635C635.509 641.474 654.488 640.618 672.612 638.382C680.963 637.352 697.248 634.946 703.069 629.055C711.674 620.349 693.815 622.578 691.069 622.782C676.075 623.978 663.694 623.909 648.785 627.346C632.602 631.077 617.264 637.388 601.394 641.725ZM371.278 364.365C366.509 371.913 367.539 385.658 369.117 394.262C369.336 395.454 369.668 396.341 370.612 397.112C371.962 396.571 371.36 396.998 372.155 395.389C373.876 387.123 376.075 377.61 376.605 369.152C376.827 365.601 374.855 364.112 371.278 364.365ZM665.528 580.474C674.338 583.811 683.399 586.49 691.041 592.121C701.423 600.064 701.335 604.552 708.981 612.757C710.976 603.095 713.282 563.827 709.224 556.247C708.669 556.048 708.514 555.921 707.955 555.901C700.629 559.736 692.532 566.21 685.104 570.743C677.713 575.254 672.844 576.89 665.528 580.474ZM471.479 157.839C473.931 157.189 477.002 156.287 479.427 155.756C475.323 153.061 472.51 151.288 467.594 150.2C466.133 153.998 464.566 157.962 463.217 161.791C465.983 160.409 468.634 159.061 471.479 157.839ZM548.552 205.286C570.206 196.814 595.515 189.745 588.405 160.214C586.787 153.493 587.42 149.351 582.987 143.056C578.021 140.71 567.981 138.71 562.05 137.212C566.679 150.232 568.838 158.025 565.08 171.846C561.706 184.252 556.658 190.566 547.816 199.457C544.254 202.779 527.76 216.98 527.023 219.957C528.62 219.396 534.423 213.408 537.433 211.512C541.505 208.948 544.093 207.421 548.552 205.286ZM497.831 233.171C499.974 235.053 503.258 237.689 505.974 238.64L506.747 238.32C504.308 232.099 495.933 227.437 494.292 219.414C493.236 214.255 491.464 209.162 491.258 203.739C489.816 194.124 491.854 157.445 476.444 159.128C470.924 160.337 467.147 162.136 462.268 165.101C452.793 194.162 480.34 215.503 497.831 233.171ZM317.198 617.303C321.086 615.392 325.079 612.939 328.906 611.302C336.904 607.88 346.213 606.089 354.738 604.361C357.918 603.895 384.86 600.702 385.805 600.236C372.518 593.973 352.51 587.968 337.975 587.191C335.348 587.408 330.596 587.473 329.181 589.731C325.156 596.149 319.334 610.197 317.198 617.303ZM256.753 865.76C260.207 870.547 263.726 874.564 268.527 878.043C286.575 891.123 319.311 897.98 341.31 901.554C349.653 902.926 358.037 904.035 366.45 904.88C373.036 905.53 379.576 906.036 386.191 906.284C368.987 901.201 351.772 897.47 335.457 889.703C328.386 886.39 321.623 882.456 315.249 877.945C303.906 869.769 291.761 855.525 276.623 856.117C269.585 857.217 262.2 861.258 256.753 865.76ZM588.551 192C574.06 196.509 568.451 203.074 557.678 213.348C551.155 219.568 543.35 224.41 535.233 228.234C529.682 230.853 527.818 233.409 521.736 231.215L519.82 230.542C518.498 231.558 518.282 234.178 517.814 236.156C518.74 237.287 518.204 236.836 519.564 237.356C537.024 240.978 555.206 237.386 569.976 227.395C576.708 222.886 582.449 217.063 586.285 209.899C588.245 206.237 593.355 195.782 590.892 192.04C589.547 191.87 589.917 191.861 588.551 192ZM253.746 647.451C243.094 665.741 240.742 687.522 233.381 707.157C229.748 716.85 223.637 725.601 220.739 735.533C219.521 739.705 218.923 744.225 219.984 748.498C220.396 750.157 221.038 751.699 221.891 753.174C223.218 753.759 223.637 754.093 225.094 753.644C230.981 751.827 241.469 728.994 243.51 723.32C248.662 708.992 250.827 693.68 251.485 678.515C251.966 667.45 251.749 658.977 254.145 647.993L253.746 647.451ZM316.362 621.079C310.849 638.978 335.855 638.433 347.398 639.452C358.624 640.34 369.844 641.314 381.055 642.371C432.486 647.492 483.849 653.191 535.583 653.058C567.947 652.974 599.825 650.068 631.904 646.089C642.178 644.799 670.055 642.174 679.11 639.374L682.277 638.802C681.485 638.509 662.553 640.84 659.75 641.079C646.834 642.144 633.89 642.839 620.933 643.164C612.537 643.383 602.554 643.124 594.334 643.93C574.92 645.834 556.659 649.115 537.042 649.384C501.283 649.875 466.087 644.908 430.516 642.141C412.639 640.859 394.769 639.468 376.908 637.969C362.383 636.826 346.16 635.793 332.01 632.413C324.73 630.673 321.503 623.106 316.362 621.079ZM751.813 860.172C735.337 862.383 719.436 868.087 703.092 871.104C679.314 875.493 649.107 875.903 626.975 884.142C631.793 886.23 636.6 887.187 641.749 888.1C657.431 890.507 672.891 892.324 688.78 891.083C698.58 890.317 708.235 888.496 717.985 887.324C723.729 886.634 729.744 887.378 735.29 885.462C740.609 883.623 746.046 880.048 750.577 876.746C754.287 874.042 761.143 868.961 761.603 864.107C761.722 862.842 761.309 862.084 760.582 861.113C758.016 859.496 754.728 859.599 751.813 860.172Z"/><path d="M527.241 727.43C528.025 727.813 528.51 728.085 529.181 728.664L528.287 729.393C527.039 729.347 526.211 729.335 525.056 728.796C525.488 727.842 526.299 727.803 527.241 727.43Z"/><path d="M515.894 219.962L516.191 220.268C516.759 221.785 515.124 227.916 514.764 230.509C512.124 224.675 514.566 225.468 515.894 219.962Z"/><path fill="#E0DFE2" fill-opacity="0.0078431377" d="M388.449 429.082C411.299 425.432 433.357 424.856 456.339 427.126C466.128 428.094 475.557 428.554 485.314 430.174L484.894 430.855C483.095 431.001 478.931 431.141 477.421 431.427C448.099 431.021 417.472 431.12 388.449 429.082Z"/><path fill="#969595" fill-opacity="0.027450981" d="M549.673 328.094C557.535 322.822 565.208 316.02 569.581 307.518L571.109 308.864C562.157 319.111 552.305 336.459 541.715 344.525C541.114 343.374 541.062 343.143 540.69 341.885L541.744 341.29C544.375 334.68 545.563 336.435 549.901 332.061C550.485 329.847 550.322 330.57 549.673 328.094Z"/><path fill="#E0DFE2" fill-opacity="0.015686275" d="M397.632 304.95C395.266 296.238 391.184 285.243 386.908 277.272C385.283 274.242 379.024 267.685 379.073 266.131C384.238 265.086 387.547 274.403 389.01 277.888C392.689 286.651 395.904 293.608 402.662 300.459C399.418 303.608 402.592 301.95 399.989 304.514C399.982 304.522 398.197 304.723 397.632 304.95Z"/><path fill="#969595" fill-opacity="0.011764706" d="M548.552 205.286C544.093 207.421 541.505 208.948 537.433 211.512C534.423 213.408 528.62 219.396 527.023 219.957C527.76 216.98 544.254 202.779 547.816 199.457C547.72 200.673 547.654 201.89 547.619 203.109L548.092 203.593L548.552 205.286Z"/><path fill="#969595" fill-opacity="0.011764706" d="M548.672 341.178C540.612 353.393 529.236 358.863 514.764 358.591L514.406 357.787C515.585 357.785 517.796 357.821 518.62 357.034C521.035 354.729 525.961 355.954 528.971 354.874C530.559 354.305 533.973 353.27 534.786 351.803C536.017 350.732 538.098 349.73 539.571 348.742C543.08 346.388 545.66 344.097 548.672 341.178Z"/><path fill="#E0DFE2" fill-opacity="0.027450981" d="M350.944 508.222C353.533 510.769 355.128 512.506 358.349 514.269L358.547 515.346L357.452 516.143C357.318 515.99 350.542 510.342 349.691 509.599L350.944 508.222Z"/><path fill="#E0DFE2" fill-opacity="0.039215688" d="M705.25 640.127C701.059 640.424 696.901 640.465 692.704 640.542C694.472 639.759 701.284 639.021 703.446 638.747L705.25 640.127Z"/><path fill="#BEB4C1" fill-opacity="0.17254902" d="M485.314 430.174C487.231 430.237 492.18 430.452 493.86 431.231C489.034 431.666 482.385 431.514 477.421 431.427C478.931 431.141 483.095 431.001 484.894 430.855L485.314 430.174Z"/><path fill="#E0DFE2" fill-opacity="0.011764706" d="M752.664 659.922C753.948 657.775 755.336 655.345 756.666 653.256C756.324 654.691 755.071 659.52 754.915 660.75L752.664 659.922Z"/><path fill="#E0DFE2" fill-opacity="0.019607844" d="M373.086 266.219C376.75 260.832 381.32 256.171 387.91 254.684C402.556 251.838 417.518 252.432 432.478 251.47C450.755 250.295 473.386 244.86 491.346 245.618C493.262 245.986 493.677 245.689 494.646 246.844C493.411 247.644 452.42 249.517 447.526 251.682C446.582 252.099 433.714 253.056 431.618 253.404C422.241 254.962 387.959 251.873 382.265 259.672C382.016 261.165 382.234 261.497 382.614 262.963C381.769 263.707 382.155 263.544 381.118 263.795C378.955 263.654 377.916 263.339 376.109 264.326C375.064 265.62 375.031 265.561 374.461 267.096L373.086 266.219Z"/><path fill="#E0DFE2" fill-opacity="0.0078431377" d="M325.832 591.364C323.164 598.24 320.915 603.506 317.6 610.202C316.602 608.423 315.839 606.313 315.095 604.401C315.432 604.247 323.879 593.271 325.832 591.364Z"/><path fill="#E0DFE2" fill-opacity="0.019607844" d="M653.126 256.615L654.762 257.875L652.998 259.189L651.097 258.692L653.126 256.615Z"/></svg>